%TF.GenerationSoftware,KiCad,Pcbnew,10.0.6*%
%TF.CreationDate,2026-09-14T23:21:13+07:00*%
%TF.ProjectId,mainboard,6d61696e-626f-4617-9264-2e6b69636164,rev?*%
%TF.SameCoordinates,Original*%
%TF.FileFunction,Drillmap*%
%TF.FilePolarity,Positive*%
%FSLAX45Y45*%
G04 Gerber Fmt 4.5, Leading zero omitted, Abs format (unit mm)*
G04 Created by KiCad (PCBNEW 10.0.6) date 2026-09-14 23:21:13*
%MOMM*%
%LPD*%
G01*
G04 APERTURE LIST*
%ADD10C,0.100000*%
%ADD11C,0.200000*%
%ADD12C,0.230000*%
G04 APERTURE END LIST*
D10*
X10600000Y-2900000D02*
G75*
G02*
X10900000Y-2600000I300010J-10D01*
G01*
X10600000Y-17100000D02*
X10600000Y-2900000D01*
X10900000Y-2600000D02*
X19100000Y-2600000D01*
X10900000Y-17400000D02*
G75*
G02*
X10600000Y-17100000I10J300010D01*
G01*
X19100000Y-2600000D02*
G75*
G02*
X19400000Y-2900000I-10J-300010D01*
G01*
X19100000Y-17400000D02*
X10900000Y-17400000D01*
X19400000Y-2900000D02*
X19400000Y-17100000D01*
X19400000Y-17100000D02*
G75*
G02*
X19100000Y-17400000I-300010J10D01*
G01*
D11*
D12*
X10710000Y-2710000D02*
X10940000Y-2940000D01*
X10940000Y-2710000D02*
X10710000Y-2940000D01*
X10710000Y-17060000D02*
X10940000Y-17290000D01*
X10940000Y-17060000D02*
X10710000Y-17290000D01*
X19060000Y-2710000D02*
X19290000Y-2940000D01*
X19290000Y-2710000D02*
X19060000Y-2940000D01*
X19060000Y-17060000D02*
X19290000Y-17290000D01*
X19290000Y-17060000D02*
X19060000Y-17290000D01*
D11*
X10855777Y-17716484D02*
X10855777Y-17516484D01*
X10855777Y-17516484D02*
X10903396Y-17516484D01*
X10903396Y-17516484D02*
X10931967Y-17526008D01*
X10931967Y-17526008D02*
X10951015Y-17545055D01*
X10951015Y-17545055D02*
X10960539Y-17564103D01*
X10960539Y-17564103D02*
X10970063Y-17602198D01*
X10970063Y-17602198D02*
X10970063Y-17630770D01*
X10970063Y-17630770D02*
X10960539Y-17668865D01*
X10960539Y-17668865D02*
X10951015Y-17687912D01*
X10951015Y-17687912D02*
X10931967Y-17706960D01*
X10931967Y-17706960D02*
X10903396Y-17716484D01*
X10903396Y-17716484D02*
X10855777Y-17716484D01*
X11055777Y-17716484D02*
X11055777Y-17583150D01*
X11055777Y-17621246D02*
X11065301Y-17602198D01*
X11065301Y-17602198D02*
X11074824Y-17592674D01*
X11074824Y-17592674D02*
X11093872Y-17583150D01*
X11093872Y-17583150D02*
X11112920Y-17583150D01*
X11179586Y-17716484D02*
X11179586Y-17583150D01*
X11179586Y-17516484D02*
X11170063Y-17526008D01*
X11170063Y-17526008D02*
X11179586Y-17535531D01*
X11179586Y-17535531D02*
X11189110Y-17526008D01*
X11189110Y-17526008D02*
X11179586Y-17516484D01*
X11179586Y-17516484D02*
X11179586Y-17535531D01*
X11303396Y-17716484D02*
X11284348Y-17706960D01*
X11284348Y-17706960D02*
X11274824Y-17687912D01*
X11274824Y-17687912D02*
X11274824Y-17516484D01*
X11408158Y-17716484D02*
X11389110Y-17706960D01*
X11389110Y-17706960D02*
X11379586Y-17687912D01*
X11379586Y-17687912D02*
X11379586Y-17516484D01*
X11636729Y-17716484D02*
X11636729Y-17516484D01*
X11636729Y-17516484D02*
X11703396Y-17659341D01*
X11703396Y-17659341D02*
X11770062Y-17516484D01*
X11770062Y-17516484D02*
X11770062Y-17716484D01*
X11951015Y-17716484D02*
X11951015Y-17611722D01*
X11951015Y-17611722D02*
X11941491Y-17592674D01*
X11941491Y-17592674D02*
X11922443Y-17583150D01*
X11922443Y-17583150D02*
X11884348Y-17583150D01*
X11884348Y-17583150D02*
X11865301Y-17592674D01*
X11951015Y-17706960D02*
X11931967Y-17716484D01*
X11931967Y-17716484D02*
X11884348Y-17716484D01*
X11884348Y-17716484D02*
X11865301Y-17706960D01*
X11865301Y-17706960D02*
X11855777Y-17687912D01*
X11855777Y-17687912D02*
X11855777Y-17668865D01*
X11855777Y-17668865D02*
X11865301Y-17649817D01*
X11865301Y-17649817D02*
X11884348Y-17640293D01*
X11884348Y-17640293D02*
X11931967Y-17640293D01*
X11931967Y-17640293D02*
X11951015Y-17630770D01*
X12046253Y-17583150D02*
X12046253Y-17783150D01*
X12046253Y-17592674D02*
X12065301Y-17583150D01*
X12065301Y-17583150D02*
X12103396Y-17583150D01*
X12103396Y-17583150D02*
X12122443Y-17592674D01*
X12122443Y-17592674D02*
X12131967Y-17602198D01*
X12131967Y-17602198D02*
X12141491Y-17621246D01*
X12141491Y-17621246D02*
X12141491Y-17678389D01*
X12141491Y-17678389D02*
X12131967Y-17697436D01*
X12131967Y-17697436D02*
X12122443Y-17706960D01*
X12122443Y-17706960D02*
X12103396Y-17716484D01*
X12103396Y-17716484D02*
X12065301Y-17716484D01*
X12065301Y-17716484D02*
X12046253Y-17706960D01*
X12227205Y-17697436D02*
X12236729Y-17706960D01*
X12236729Y-17706960D02*
X12227205Y-17716484D01*
X12227205Y-17716484D02*
X12217682Y-17706960D01*
X12217682Y-17706960D02*
X12227205Y-17697436D01*
X12227205Y-17697436D02*
X12227205Y-17716484D01*
X12227205Y-17592674D02*
X12236729Y-17602198D01*
X12236729Y-17602198D02*
X12227205Y-17611722D01*
X12227205Y-17611722D02*
X12217682Y-17602198D01*
X12217682Y-17602198D02*
X12227205Y-17592674D01*
X12227205Y-17592674D02*
X12227205Y-17611722D01*
X10395000Y-17945000D02*
X10595000Y-18145000D01*
X10595000Y-17945000D02*
X10395000Y-18145000D01*
X10846253Y-17955531D02*
X10855777Y-17946008D01*
X10855777Y-17946008D02*
X10874824Y-17936484D01*
X10874824Y-17936484D02*
X10922444Y-17936484D01*
X10922444Y-17936484D02*
X10941491Y-17946008D01*
X10941491Y-17946008D02*
X10951015Y-17955531D01*
X10951015Y-17955531D02*
X10960539Y-17974579D01*
X10960539Y-17974579D02*
X10960539Y-17993627D01*
X10960539Y-17993627D02*
X10951015Y-18022198D01*
X10951015Y-18022198D02*
X10836729Y-18136484D01*
X10836729Y-18136484D02*
X10960539Y-18136484D01*
X11046253Y-18117436D02*
X11055777Y-18126960D01*
X11055777Y-18126960D02*
X11046253Y-18136484D01*
X11046253Y-18136484D02*
X11036729Y-18126960D01*
X11036729Y-18126960D02*
X11046253Y-18117436D01*
X11046253Y-18117436D02*
X11046253Y-18136484D01*
X11122444Y-17936484D02*
X11246253Y-17936484D01*
X11246253Y-17936484D02*
X11179586Y-18012674D01*
X11179586Y-18012674D02*
X11208158Y-18012674D01*
X11208158Y-18012674D02*
X11227205Y-18022198D01*
X11227205Y-18022198D02*
X11236729Y-18031722D01*
X11236729Y-18031722D02*
X11246253Y-18050770D01*
X11246253Y-18050770D02*
X11246253Y-18098389D01*
X11246253Y-18098389D02*
X11236729Y-18117436D01*
X11236729Y-18117436D02*
X11227205Y-18126960D01*
X11227205Y-18126960D02*
X11208158Y-18136484D01*
X11208158Y-18136484D02*
X11151015Y-18136484D01*
X11151015Y-18136484D02*
X11131967Y-18126960D01*
X11131967Y-18126960D02*
X11122444Y-18117436D01*
X11370062Y-17936484D02*
X11389110Y-17936484D01*
X11389110Y-17936484D02*
X11408158Y-17946008D01*
X11408158Y-17946008D02*
X11417682Y-17955531D01*
X11417682Y-17955531D02*
X11427205Y-17974579D01*
X11427205Y-17974579D02*
X11436729Y-18012674D01*
X11436729Y-18012674D02*
X11436729Y-18060293D01*
X11436729Y-18060293D02*
X11427205Y-18098389D01*
X11427205Y-18098389D02*
X11417682Y-18117436D01*
X11417682Y-18117436D02*
X11408158Y-18126960D01*
X11408158Y-18126960D02*
X11389110Y-18136484D01*
X11389110Y-18136484D02*
X11370062Y-18136484D01*
X11370062Y-18136484D02*
X11351015Y-18126960D01*
X11351015Y-18126960D02*
X11341491Y-18117436D01*
X11341491Y-18117436D02*
X11331967Y-18098389D01*
X11331967Y-18098389D02*
X11322443Y-18060293D01*
X11322443Y-18060293D02*
X11322443Y-18012674D01*
X11322443Y-18012674D02*
X11331967Y-17974579D01*
X11331967Y-17974579D02*
X11341491Y-17955531D01*
X11341491Y-17955531D02*
X11351015Y-17946008D01*
X11351015Y-17946008D02*
X11370062Y-17936484D01*
X11560539Y-17936484D02*
X11579586Y-17936484D01*
X11579586Y-17936484D02*
X11598634Y-17946008D01*
X11598634Y-17946008D02*
X11608158Y-17955531D01*
X11608158Y-17955531D02*
X11617682Y-17974579D01*
X11617682Y-17974579D02*
X11627205Y-18012674D01*
X11627205Y-18012674D02*
X11627205Y-18060293D01*
X11627205Y-18060293D02*
X11617682Y-18098389D01*
X11617682Y-18098389D02*
X11608158Y-18117436D01*
X11608158Y-18117436D02*
X11598634Y-18126960D01*
X11598634Y-18126960D02*
X11579586Y-18136484D01*
X11579586Y-18136484D02*
X11560539Y-18136484D01*
X11560539Y-18136484D02*
X11541491Y-18126960D01*
X11541491Y-18126960D02*
X11531967Y-18117436D01*
X11531967Y-18117436D02*
X11522443Y-18098389D01*
X11522443Y-18098389D02*
X11512920Y-18060293D01*
X11512920Y-18060293D02*
X11512920Y-18012674D01*
X11512920Y-18012674D02*
X11522443Y-17974579D01*
X11522443Y-17974579D02*
X11531967Y-17955531D01*
X11531967Y-17955531D02*
X11541491Y-17946008D01*
X11541491Y-17946008D02*
X11560539Y-17936484D01*
X11712920Y-18136484D02*
X11712920Y-18003150D01*
X11712920Y-18022198D02*
X11722443Y-18012674D01*
X11722443Y-18012674D02*
X11741491Y-18003150D01*
X11741491Y-18003150D02*
X11770063Y-18003150D01*
X11770063Y-18003150D02*
X11789110Y-18012674D01*
X11789110Y-18012674D02*
X11798634Y-18031722D01*
X11798634Y-18031722D02*
X11798634Y-18136484D01*
X11798634Y-18031722D02*
X11808158Y-18012674D01*
X11808158Y-18012674D02*
X11827205Y-18003150D01*
X11827205Y-18003150D02*
X11855777Y-18003150D01*
X11855777Y-18003150D02*
X11874824Y-18012674D01*
X11874824Y-18012674D02*
X11884348Y-18031722D01*
X11884348Y-18031722D02*
X11884348Y-18136484D01*
X11979586Y-18136484D02*
X11979586Y-18003150D01*
X11979586Y-18022198D02*
X11989110Y-18012674D01*
X11989110Y-18012674D02*
X12008158Y-18003150D01*
X12008158Y-18003150D02*
X12036729Y-18003150D01*
X12036729Y-18003150D02*
X12055777Y-18012674D01*
X12055777Y-18012674D02*
X12065301Y-18031722D01*
X12065301Y-18031722D02*
X12065301Y-18136484D01*
X12065301Y-18031722D02*
X12074824Y-18012674D01*
X12074824Y-18012674D02*
X12093872Y-18003150D01*
X12093872Y-18003150D02*
X12122443Y-18003150D01*
X12122443Y-18003150D02*
X12141491Y-18012674D01*
X12141491Y-18012674D02*
X12151015Y-18031722D01*
X12151015Y-18031722D02*
X12151015Y-18136484D01*
X12541491Y-17926960D02*
X12370063Y-18184103D01*
X12798634Y-17936484D02*
X12817682Y-17936484D01*
X12817682Y-17936484D02*
X12836729Y-17946008D01*
X12836729Y-17946008D02*
X12846253Y-17955531D01*
X12846253Y-17955531D02*
X12855777Y-17974579D01*
X12855777Y-17974579D02*
X12865301Y-18012674D01*
X12865301Y-18012674D02*
X12865301Y-18060293D01*
X12865301Y-18060293D02*
X12855777Y-18098389D01*
X12855777Y-18098389D02*
X12846253Y-18117436D01*
X12846253Y-18117436D02*
X12836729Y-18126960D01*
X12836729Y-18126960D02*
X12817682Y-18136484D01*
X12817682Y-18136484D02*
X12798634Y-18136484D01*
X12798634Y-18136484D02*
X12779586Y-18126960D01*
X12779586Y-18126960D02*
X12770063Y-18117436D01*
X12770063Y-18117436D02*
X12760539Y-18098389D01*
X12760539Y-18098389D02*
X12751015Y-18060293D01*
X12751015Y-18060293D02*
X12751015Y-18012674D01*
X12751015Y-18012674D02*
X12760539Y-17974579D01*
X12760539Y-17974579D02*
X12770063Y-17955531D01*
X12770063Y-17955531D02*
X12779586Y-17946008D01*
X12779586Y-17946008D02*
X12798634Y-17936484D01*
X12951015Y-18117436D02*
X12960539Y-18126960D01*
X12960539Y-18126960D02*
X12951015Y-18136484D01*
X12951015Y-18136484D02*
X12941491Y-18126960D01*
X12941491Y-18126960D02*
X12951015Y-18117436D01*
X12951015Y-18117436D02*
X12951015Y-18136484D01*
X13084348Y-17936484D02*
X13103396Y-17936484D01*
X13103396Y-17936484D02*
X13122444Y-17946008D01*
X13122444Y-17946008D02*
X13131967Y-17955531D01*
X13131967Y-17955531D02*
X13141491Y-17974579D01*
X13141491Y-17974579D02*
X13151015Y-18012674D01*
X13151015Y-18012674D02*
X13151015Y-18060293D01*
X13151015Y-18060293D02*
X13141491Y-18098389D01*
X13141491Y-18098389D02*
X13131967Y-18117436D01*
X13131967Y-18117436D02*
X13122444Y-18126960D01*
X13122444Y-18126960D02*
X13103396Y-18136484D01*
X13103396Y-18136484D02*
X13084348Y-18136484D01*
X13084348Y-18136484D02*
X13065301Y-18126960D01*
X13065301Y-18126960D02*
X13055777Y-18117436D01*
X13055777Y-18117436D02*
X13046253Y-18098389D01*
X13046253Y-18098389D02*
X13036729Y-18060293D01*
X13036729Y-18060293D02*
X13036729Y-18012674D01*
X13036729Y-18012674D02*
X13046253Y-17974579D01*
X13046253Y-17974579D02*
X13055777Y-17955531D01*
X13055777Y-17955531D02*
X13065301Y-17946008D01*
X13065301Y-17946008D02*
X13084348Y-17936484D01*
X13246253Y-18136484D02*
X13284348Y-18136484D01*
X13284348Y-18136484D02*
X13303396Y-18126960D01*
X13303396Y-18126960D02*
X13312920Y-18117436D01*
X13312920Y-18117436D02*
X13331967Y-18088865D01*
X13331967Y-18088865D02*
X13341491Y-18050770D01*
X13341491Y-18050770D02*
X13341491Y-17974579D01*
X13341491Y-17974579D02*
X13331967Y-17955531D01*
X13331967Y-17955531D02*
X13322444Y-17946008D01*
X13322444Y-17946008D02*
X13303396Y-17936484D01*
X13303396Y-17936484D02*
X13265301Y-17936484D01*
X13265301Y-17936484D02*
X13246253Y-17946008D01*
X13246253Y-17946008D02*
X13236729Y-17955531D01*
X13236729Y-17955531D02*
X13227206Y-17974579D01*
X13227206Y-17974579D02*
X13227206Y-18022198D01*
X13227206Y-18022198D02*
X13236729Y-18041246D01*
X13236729Y-18041246D02*
X13246253Y-18050770D01*
X13246253Y-18050770D02*
X13265301Y-18060293D01*
X13265301Y-18060293D02*
X13303396Y-18060293D01*
X13303396Y-18060293D02*
X13322444Y-18050770D01*
X13322444Y-18050770D02*
X13331967Y-18041246D01*
X13331967Y-18041246D02*
X13341491Y-18022198D01*
X13465301Y-17936484D02*
X13484348Y-17936484D01*
X13484348Y-17936484D02*
X13503396Y-17946008D01*
X13503396Y-17946008D02*
X13512920Y-17955531D01*
X13512920Y-17955531D02*
X13522444Y-17974579D01*
X13522444Y-17974579D02*
X13531967Y-18012674D01*
X13531967Y-18012674D02*
X13531967Y-18060293D01*
X13531967Y-18060293D02*
X13522444Y-18098389D01*
X13522444Y-18098389D02*
X13512920Y-18117436D01*
X13512920Y-18117436D02*
X13503396Y-18126960D01*
X13503396Y-18126960D02*
X13484348Y-18136484D01*
X13484348Y-18136484D02*
X13465301Y-18136484D01*
X13465301Y-18136484D02*
X13446253Y-18126960D01*
X13446253Y-18126960D02*
X13436729Y-18117436D01*
X13436729Y-18117436D02*
X13427206Y-18098389D01*
X13427206Y-18098389D02*
X13417682Y-18060293D01*
X13417682Y-18060293D02*
X13417682Y-18012674D01*
X13417682Y-18012674D02*
X13427206Y-17974579D01*
X13427206Y-17974579D02*
X13436729Y-17955531D01*
X13436729Y-17955531D02*
X13446253Y-17946008D01*
X13446253Y-17946008D02*
X13465301Y-17936484D01*
X13703396Y-17936484D02*
X13665301Y-17936484D01*
X13665301Y-17936484D02*
X13646253Y-17946008D01*
X13646253Y-17946008D02*
X13636729Y-17955531D01*
X13636729Y-17955531D02*
X13617682Y-17984103D01*
X13617682Y-17984103D02*
X13608158Y-18022198D01*
X13608158Y-18022198D02*
X13608158Y-18098389D01*
X13608158Y-18098389D02*
X13617682Y-18117436D01*
X13617682Y-18117436D02*
X13627206Y-18126960D01*
X13627206Y-18126960D02*
X13646253Y-18136484D01*
X13646253Y-18136484D02*
X13684348Y-18136484D01*
X13684348Y-18136484D02*
X13703396Y-18126960D01*
X13703396Y-18126960D02*
X13712920Y-18117436D01*
X13712920Y-18117436D02*
X13722444Y-18098389D01*
X13722444Y-18098389D02*
X13722444Y-18050770D01*
X13722444Y-18050770D02*
X13712920Y-18031722D01*
X13712920Y-18031722D02*
X13703396Y-18022198D01*
X13703396Y-18022198D02*
X13684348Y-18012674D01*
X13684348Y-18012674D02*
X13646253Y-18012674D01*
X13646253Y-18012674D02*
X13627206Y-18022198D01*
X13627206Y-18022198D02*
X13617682Y-18031722D01*
X13617682Y-18031722D02*
X13608158Y-18050770D01*
X13798634Y-17936484D02*
X13798634Y-17974579D01*
X13874825Y-17936484D02*
X13874825Y-17974579D01*
X14170063Y-18212674D02*
X14160539Y-18203150D01*
X14160539Y-18203150D02*
X14141491Y-18174579D01*
X14141491Y-18174579D02*
X14131968Y-18155531D01*
X14131968Y-18155531D02*
X14122444Y-18126960D01*
X14122444Y-18126960D02*
X14112920Y-18079341D01*
X14112920Y-18079341D02*
X14112920Y-18041246D01*
X14112920Y-18041246D02*
X14122444Y-17993627D01*
X14122444Y-17993627D02*
X14131968Y-17965055D01*
X14131968Y-17965055D02*
X14141491Y-17946008D01*
X14141491Y-17946008D02*
X14160539Y-17917436D01*
X14160539Y-17917436D02*
X14170063Y-17907912D01*
X14331968Y-18003150D02*
X14331968Y-18136484D01*
X14284348Y-17926960D02*
X14236729Y-18069817D01*
X14236729Y-18069817D02*
X14360539Y-18069817D01*
X14589110Y-18136484D02*
X14589110Y-17936484D01*
X14674825Y-18136484D02*
X14674825Y-18031722D01*
X14674825Y-18031722D02*
X14665301Y-18012674D01*
X14665301Y-18012674D02*
X14646253Y-18003150D01*
X14646253Y-18003150D02*
X14617682Y-18003150D01*
X14617682Y-18003150D02*
X14598634Y-18012674D01*
X14598634Y-18012674D02*
X14589110Y-18022198D01*
X14798634Y-18136484D02*
X14779587Y-18126960D01*
X14779587Y-18126960D02*
X14770063Y-18117436D01*
X14770063Y-18117436D02*
X14760539Y-18098389D01*
X14760539Y-18098389D02*
X14760539Y-18041246D01*
X14760539Y-18041246D02*
X14770063Y-18022198D01*
X14770063Y-18022198D02*
X14779587Y-18012674D01*
X14779587Y-18012674D02*
X14798634Y-18003150D01*
X14798634Y-18003150D02*
X14827206Y-18003150D01*
X14827206Y-18003150D02*
X14846253Y-18012674D01*
X14846253Y-18012674D02*
X14855777Y-18022198D01*
X14855777Y-18022198D02*
X14865301Y-18041246D01*
X14865301Y-18041246D02*
X14865301Y-18098389D01*
X14865301Y-18098389D02*
X14855777Y-18117436D01*
X14855777Y-18117436D02*
X14846253Y-18126960D01*
X14846253Y-18126960D02*
X14827206Y-18136484D01*
X14827206Y-18136484D02*
X14798634Y-18136484D01*
X14979587Y-18136484D02*
X14960539Y-18126960D01*
X14960539Y-18126960D02*
X14951015Y-18107912D01*
X14951015Y-18107912D02*
X14951015Y-17936484D01*
X15131968Y-18126960D02*
X15112920Y-18136484D01*
X15112920Y-18136484D02*
X15074825Y-18136484D01*
X15074825Y-18136484D02*
X15055777Y-18126960D01*
X15055777Y-18126960D02*
X15046253Y-18107912D01*
X15046253Y-18107912D02*
X15046253Y-18031722D01*
X15046253Y-18031722D02*
X15055777Y-18012674D01*
X15055777Y-18012674D02*
X15074825Y-18003150D01*
X15074825Y-18003150D02*
X15112920Y-18003150D01*
X15112920Y-18003150D02*
X15131968Y-18012674D01*
X15131968Y-18012674D02*
X15141491Y-18031722D01*
X15141491Y-18031722D02*
X15141491Y-18050770D01*
X15141491Y-18050770D02*
X15046253Y-18069817D01*
X15217682Y-18126960D02*
X15236730Y-18136484D01*
X15236730Y-18136484D02*
X15274825Y-18136484D01*
X15274825Y-18136484D02*
X15293872Y-18126960D01*
X15293872Y-18126960D02*
X15303396Y-18107912D01*
X15303396Y-18107912D02*
X15303396Y-18098389D01*
X15303396Y-18098389D02*
X15293872Y-18079341D01*
X15293872Y-18079341D02*
X15274825Y-18069817D01*
X15274825Y-18069817D02*
X15246253Y-18069817D01*
X15246253Y-18069817D02*
X15227206Y-18060293D01*
X15227206Y-18060293D02*
X15217682Y-18041246D01*
X15217682Y-18041246D02*
X15217682Y-18031722D01*
X15217682Y-18031722D02*
X15227206Y-18012674D01*
X15227206Y-18012674D02*
X15246253Y-18003150D01*
X15246253Y-18003150D02*
X15274825Y-18003150D01*
X15274825Y-18003150D02*
X15293872Y-18012674D01*
X15370063Y-18212674D02*
X15379587Y-18203150D01*
X15379587Y-18203150D02*
X15398634Y-18174579D01*
X15398634Y-18174579D02*
X15408158Y-18155531D01*
X15408158Y-18155531D02*
X15417682Y-18126960D01*
X15417682Y-18126960D02*
X15427206Y-18079341D01*
X15427206Y-18079341D02*
X15427206Y-18041246D01*
X15427206Y-18041246D02*
X15417682Y-17993627D01*
X15417682Y-17993627D02*
X15408158Y-17965055D01*
X15408158Y-17965055D02*
X15398634Y-17946008D01*
X15398634Y-17946008D02*
X15379587Y-17917436D01*
X15379587Y-17917436D02*
X15370063Y-17907912D01*
X15731968Y-18212674D02*
X15722444Y-18203150D01*
X15722444Y-18203150D02*
X15703396Y-18174579D01*
X15703396Y-18174579D02*
X15693872Y-18155531D01*
X15693872Y-18155531D02*
X15684349Y-18126960D01*
X15684349Y-18126960D02*
X15674825Y-18079341D01*
X15674825Y-18079341D02*
X15674825Y-18041246D01*
X15674825Y-18041246D02*
X15684349Y-17993627D01*
X15684349Y-17993627D02*
X15693872Y-17965055D01*
X15693872Y-17965055D02*
X15703396Y-17946008D01*
X15703396Y-17946008D02*
X15722444Y-17917436D01*
X15722444Y-17917436D02*
X15731968Y-17907912D01*
X15808158Y-18003150D02*
X15808158Y-18136484D01*
X15808158Y-18022198D02*
X15817682Y-18012674D01*
X15817682Y-18012674D02*
X15836730Y-18003150D01*
X15836730Y-18003150D02*
X15865301Y-18003150D01*
X15865301Y-18003150D02*
X15884349Y-18012674D01*
X15884349Y-18012674D02*
X15893872Y-18031722D01*
X15893872Y-18031722D02*
X15893872Y-18136484D01*
X16017682Y-18136484D02*
X15998634Y-18126960D01*
X15998634Y-18126960D02*
X15989111Y-18117436D01*
X15989111Y-18117436D02*
X15979587Y-18098389D01*
X15979587Y-18098389D02*
X15979587Y-18041246D01*
X15979587Y-18041246D02*
X15989111Y-18022198D01*
X15989111Y-18022198D02*
X15998634Y-18012674D01*
X15998634Y-18012674D02*
X16017682Y-18003150D01*
X16017682Y-18003150D02*
X16046253Y-18003150D01*
X16046253Y-18003150D02*
X16065301Y-18012674D01*
X16065301Y-18012674D02*
X16074825Y-18022198D01*
X16074825Y-18022198D02*
X16084349Y-18041246D01*
X16084349Y-18041246D02*
X16084349Y-18098389D01*
X16084349Y-18098389D02*
X16074825Y-18117436D01*
X16074825Y-18117436D02*
X16065301Y-18126960D01*
X16065301Y-18126960D02*
X16046253Y-18136484D01*
X16046253Y-18136484D02*
X16017682Y-18136484D01*
X16141492Y-18003150D02*
X16217682Y-18003150D01*
X16170063Y-17936484D02*
X16170063Y-18107912D01*
X16170063Y-18107912D02*
X16179587Y-18126960D01*
X16179587Y-18126960D02*
X16198634Y-18136484D01*
X16198634Y-18136484D02*
X16217682Y-18136484D01*
X16436730Y-18003150D02*
X16436730Y-18203150D01*
X16436730Y-18012674D02*
X16455777Y-18003150D01*
X16455777Y-18003150D02*
X16493873Y-18003150D01*
X16493873Y-18003150D02*
X16512920Y-18012674D01*
X16512920Y-18012674D02*
X16522444Y-18022198D01*
X16522444Y-18022198D02*
X16531968Y-18041246D01*
X16531968Y-18041246D02*
X16531968Y-18098389D01*
X16531968Y-18098389D02*
X16522444Y-18117436D01*
X16522444Y-18117436D02*
X16512920Y-18126960D01*
X16512920Y-18126960D02*
X16493873Y-18136484D01*
X16493873Y-18136484D02*
X16455777Y-18136484D01*
X16455777Y-18136484D02*
X16436730Y-18126960D01*
X16646253Y-18136484D02*
X16627206Y-18126960D01*
X16627206Y-18126960D02*
X16617682Y-18107912D01*
X16617682Y-18107912D02*
X16617682Y-17936484D01*
X16808158Y-18136484D02*
X16808158Y-18031722D01*
X16808158Y-18031722D02*
X16798635Y-18012674D01*
X16798635Y-18012674D02*
X16779587Y-18003150D01*
X16779587Y-18003150D02*
X16741492Y-18003150D01*
X16741492Y-18003150D02*
X16722444Y-18012674D01*
X16808158Y-18126960D02*
X16789111Y-18136484D01*
X16789111Y-18136484D02*
X16741492Y-18136484D01*
X16741492Y-18136484D02*
X16722444Y-18126960D01*
X16722444Y-18126960D02*
X16712920Y-18107912D01*
X16712920Y-18107912D02*
X16712920Y-18088865D01*
X16712920Y-18088865D02*
X16722444Y-18069817D01*
X16722444Y-18069817D02*
X16741492Y-18060293D01*
X16741492Y-18060293D02*
X16789111Y-18060293D01*
X16789111Y-18060293D02*
X16808158Y-18050770D01*
X16874825Y-18003150D02*
X16951015Y-18003150D01*
X16903396Y-17936484D02*
X16903396Y-18107912D01*
X16903396Y-18107912D02*
X16912920Y-18126960D01*
X16912920Y-18126960D02*
X16931968Y-18136484D01*
X16931968Y-18136484D02*
X16951015Y-18136484D01*
X17093873Y-18126960D02*
X17074825Y-18136484D01*
X17074825Y-18136484D02*
X17036730Y-18136484D01*
X17036730Y-18136484D02*
X17017682Y-18126960D01*
X17017682Y-18126960D02*
X17008158Y-18107912D01*
X17008158Y-18107912D02*
X17008158Y-18031722D01*
X17008158Y-18031722D02*
X17017682Y-18012674D01*
X17017682Y-18012674D02*
X17036730Y-18003150D01*
X17036730Y-18003150D02*
X17074825Y-18003150D01*
X17074825Y-18003150D02*
X17093873Y-18012674D01*
X17093873Y-18012674D02*
X17103396Y-18031722D01*
X17103396Y-18031722D02*
X17103396Y-18050770D01*
X17103396Y-18050770D02*
X17008158Y-18069817D01*
X17274825Y-18136484D02*
X17274825Y-17936484D01*
X17274825Y-18126960D02*
X17255777Y-18136484D01*
X17255777Y-18136484D02*
X17217682Y-18136484D01*
X17217682Y-18136484D02*
X17198635Y-18126960D01*
X17198635Y-18126960D02*
X17189111Y-18117436D01*
X17189111Y-18117436D02*
X17179587Y-18098389D01*
X17179587Y-18098389D02*
X17179587Y-18041246D01*
X17179587Y-18041246D02*
X17189111Y-18022198D01*
X17189111Y-18022198D02*
X17198635Y-18012674D01*
X17198635Y-18012674D02*
X17217682Y-18003150D01*
X17217682Y-18003150D02*
X17255777Y-18003150D01*
X17255777Y-18003150D02*
X17274825Y-18012674D01*
X17351016Y-18212674D02*
X17360539Y-18203150D01*
X17360539Y-18203150D02*
X17379587Y-18174579D01*
X17379587Y-18174579D02*
X17389111Y-18155531D01*
X17389111Y-18155531D02*
X17398635Y-18126960D01*
X17398635Y-18126960D02*
X17408158Y-18079341D01*
X17408158Y-18079341D02*
X17408158Y-18041246D01*
X17408158Y-18041246D02*
X17398635Y-17993627D01*
X17398635Y-17993627D02*
X17389111Y-17965055D01*
X17389111Y-17965055D02*
X17379587Y-17946008D01*
X17379587Y-17946008D02*
X17360539Y-17917436D01*
X17360539Y-17917436D02*
X17351016Y-17907912D01*
M02*
