M48
; DRILL file KiCad 10.0.6 date 2026-09-14T23:21:13
; FORMAT={-:-/ absolute / metric / decimal}
; #@! TF.CreationDate,2026-09-14T23:21:13+07:00
; #@! TF.GenerationSoftware,Kicad,Pcbnew,10.0.6
; #@! TF.FileFunction,Plated,1,2,PTH
FMAT,2
METRIC
; #@! TA.AperFunction,Plated,PTH,ViaDrill
T1C0.300
; #@! TA.AperFunction,Plated,PTH,ComponentDrill
T2C1.000
%
G90
G05
T1
X120.5Y-60.0
X127.0Y-104.0
X127.0Y-111.0
X129.0Y-113.0
X129.0Y-149.25
X130.75Y-55.25
X130.75Y-111.25
X137.0Y-143.25
X137.0Y-152.0
X137.5Y-49.5
X137.5Y-60.0
X137.5Y-61.75
X137.5Y-69.25
X149.0Y-152.0
X150.25Y-71.0
X152.75Y-149.25
X153.75Y-49.5
X153.75Y-60.0
X153.75Y-61.75
X153.75Y-108.0
X155.5Y-69.25
X155.5Y-107.0
X156.0Y-71.0
X157.75Y-51.25
X159.5Y-46.75
X159.5Y-88.75
X159.5Y-99.5
X161.25Y-49.5
X161.25Y-60.0
X161.25Y-69.25
X163.25Y-51.25
X163.25Y-61.75
X163.25Y-71.0
X165.0Y-74.5
X166.75Y-60.0
X166.75Y-74.5
X166.75Y-92.0
X168.5Y-49.5
X168.5Y-74.5
X171.0Y-86.0
X172.75Y-69.25
X172.75Y-72.75
T2
X119.0Y-40.0
X119.0Y-42.54
X119.0Y-45.08
X119.0Y-47.62
X119.0Y-50.16
X119.0Y-52.7
X119.0Y-55.24
X119.0Y-57.78
X119.0Y-108.0
X119.0Y-110.54
X119.0Y-113.08
X119.0Y-115.62
X119.0Y-140.0
X119.0Y-142.54
X119.0Y-145.08
X119.0Y-147.62
X119.0Y-162.0
X119.0Y-164.54
X137.3Y-74.22
X137.3Y-76.76
X137.3Y-79.3
X137.3Y-81.84
X137.3Y-84.38
X137.3Y-86.92
X137.3Y-89.46
X137.3Y-92.0
X137.3Y-94.54
X137.3Y-97.08
X137.3Y-99.62
X137.3Y-102.16
X137.3Y-104.7
X137.3Y-107.24
X137.3Y-109.78
X142.0Y-152.0
X142.0Y-154.54
X142.0Y-157.08
X142.0Y-159.62
X162.7Y-74.22
X162.7Y-76.76
X162.7Y-79.3
X162.7Y-81.84
X162.7Y-84.38
X162.7Y-86.92
X162.7Y-89.46
X162.7Y-92.0
X162.7Y-94.54
X162.7Y-97.08
X162.7Y-99.62
X162.7Y-102.16
X162.7Y-104.7
X162.7Y-107.24
X162.7Y-109.78
X172.0Y-162.0
X172.0Y-164.54
X172.0Y-167.08
X181.0Y-40.0
X181.0Y-42.54
X181.0Y-45.08
X181.0Y-47.62
X181.0Y-50.16
X181.0Y-52.7
X181.0Y-55.24
X181.0Y-57.78
X185.0Y-85.0
X185.0Y-87.54
M30
