%TF.GenerationSoftware,KiCad,Pcbnew,10.0.6*%
%TF.CreationDate,2026-09-14T23:20:52+07:00*%
%TF.ProjectId,mainboard,6d61696e-626f-4617-9264-2e6b69636164,rev?*%
%TF.SameCoordinates,Original*%
%TF.FileFunction,Soldermask,Top*%
%TF.FilePolarity,Negative*%
%FSLAX46Y46*%
G04 Gerber Fmt 4.6, Leading zero omitted, Abs format (unit mm)*
G04 Created by KiCad (PCBNEW 10.0.6) date 2026-09-14 23:20:52*
%MOMM*%
%LPD*%
G01*
G04 APERTURE LIST*
G04 Aperture macros list*
%AMRoundRect*
0 Rectangle with rounded corners*
0 $1 Rounding radius*
0 $2 $3 $4 $5 $6 $7 $8 $9 X,Y pos of 4 corners*
0 Add a 4 corners polygon primitive as box body*
4,1,4,$2,$3,$4,$5,$6,$7,$8,$9,$2,$3,0*
0 Add four circle primitives for the rounded corners*
1,1,$1+$1,$2,$3*
1,1,$1+$1,$4,$5*
1,1,$1+$1,$6,$7*
1,1,$1+$1,$8,$9*
0 Add four rect primitives between the rounded corners*
20,1,$1+$1,$2,$3,$4,$5,0*
20,1,$1+$1,$4,$5,$6,$7,0*
20,1,$1+$1,$6,$7,$8,$9,0*
20,1,$1+$1,$8,$9,$2,$3,0*%
G04 Aperture macros list end*
%ADD10RoundRect,0.150000X-0.587500X-0.150000X0.587500X-0.150000X0.587500X0.150000X-0.587500X0.150000X0*%
%ADD11R,1.700000X1.700000*%
%ADD12C,1.700000*%
%ADD13C,2.300000*%
%ADD14RoundRect,0.256250X-0.256250X-0.443750X0.256250X-0.443750X0.256250X0.443750X-0.256250X0.443750X0*%
G04 APERTURE END LIST*
D10*
%TO.C,Q1*%
X177062500Y-85050000D03*
X177062500Y-86950000D03*
X178937500Y-86000000D03*
%TD*%
D11*
%TO.C,J1*%
X119000000Y-162000000D03*
D12*
X119000000Y-164540000D03*
%TD*%
D11*
%TO.C,J6*%
X142000000Y-152000000D03*
D12*
X142000000Y-154540000D03*
X142000000Y-157080000D03*
X142000000Y-159620000D03*
%TD*%
D13*
%TO.C,H2*%
X191750000Y-28250000D03*
%TD*%
D14*
%TO.C,R4*%
X127087500Y-104000000D03*
X128912500Y-104000000D03*
%TD*%
D11*
%TO.C,J5*%
X119000000Y-108000000D03*
D12*
X119000000Y-110540000D03*
X119000000Y-113080000D03*
X119000000Y-115620000D03*
%TD*%
D14*
%TO.C,R7*%
X149087500Y-159000000D03*
X150912500Y-159000000D03*
%TD*%
%TO.C,R6*%
X149087500Y-152000000D03*
X150912500Y-152000000D03*
%TD*%
D13*
%TO.C,H4*%
X108250000Y-171750000D03*
%TD*%
D11*
%TO.C,J4*%
X181000000Y-40000000D03*
D12*
X181000000Y-42540000D03*
X181000000Y-45080000D03*
X181000000Y-47620000D03*
X181000000Y-50160000D03*
X181000000Y-52700000D03*
X181000000Y-55240000D03*
X181000000Y-57780000D03*
%TD*%
D13*
%TO.C,H1*%
X108250000Y-28250000D03*
%TD*%
D11*
%TO.C,J8*%
X172000000Y-162000000D03*
D12*
X172000000Y-164540000D03*
X172000000Y-167080000D03*
%TD*%
D13*
%TO.C,H3*%
X191750000Y-171750000D03*
%TD*%
D14*
%TO.C,R5*%
X127087500Y-111000000D03*
X128912500Y-111000000D03*
%TD*%
D11*
%TO.C,J7*%
X119000000Y-140000000D03*
D12*
X119000000Y-142540000D03*
X119000000Y-145080000D03*
X119000000Y-147620000D03*
%TD*%
D11*
%TO.C,J3*%
X119000000Y-40000000D03*
D12*
X119000000Y-42540000D03*
X119000000Y-45080000D03*
X119000000Y-47620000D03*
X119000000Y-50160000D03*
X119000000Y-52700000D03*
X119000000Y-55240000D03*
X119000000Y-57780000D03*
%TD*%
D11*
%TO.C,J9*%
X185000000Y-85000000D03*
D12*
X185000000Y-87540000D03*
%TD*%
D11*
%TO.C,U1*%
X137300000Y-74220000D03*
D12*
X137300000Y-76760000D03*
X137300000Y-79300000D03*
X137300000Y-81840000D03*
X137300000Y-84380000D03*
X137300000Y-86920000D03*
X137300000Y-89460000D03*
X137300000Y-92000000D03*
X137300000Y-94540000D03*
X137300000Y-97080000D03*
X137300000Y-99620000D03*
X137300000Y-102160000D03*
X137300000Y-104700000D03*
X137300000Y-107240000D03*
X137300000Y-109780000D03*
X162700000Y-74220000D03*
X162700000Y-76760000D03*
X162700000Y-79300000D03*
X162700000Y-81840000D03*
X162700000Y-84380000D03*
X162700000Y-86920000D03*
X162700000Y-89460000D03*
X162700000Y-92000000D03*
X162700000Y-94540000D03*
X162700000Y-97080000D03*
X162700000Y-99620000D03*
X162700000Y-102160000D03*
X162700000Y-104700000D03*
X162700000Y-107240000D03*
X162700000Y-109780000D03*
%TD*%
D14*
%TO.C,R8*%
X171087500Y-86000000D03*
X172912500Y-86000000D03*
%TD*%
M02*
