%TF.GenerationSoftware,KiCad,Pcbnew,10.0.6*%
%TF.CreationDate,2026-09-14T23:20:52+07:00*%
%TF.ProjectId,mainboard,6d61696e-626f-4617-9264-2e6b69636164,rev?*%
%TF.SameCoordinates,Original*%
%TF.FileFunction,Legend,Top*%
%TF.FilePolarity,Positive*%
%FSLAX46Y46*%
G04 Gerber Fmt 4.6, Leading zero omitted, Abs format (unit mm)*
G04 Created by KiCad (PCBNEW 10.0.6) date 2026-09-14 23:20:52*
%MOMM*%
%LPD*%
G01*
G04 APERTURE LIST*
%ADD10C,0.150000*%
%ADD11C,0.200000*%
G04 APERTURE END LIST*
D10*
X177904761Y-83550057D02*
X177809523Y-83502438D01*
X177809523Y-83502438D02*
X177714285Y-83407200D01*
X177714285Y-83407200D02*
X177571428Y-83264342D01*
X177571428Y-83264342D02*
X177476190Y-83216723D01*
X177476190Y-83216723D02*
X177380952Y-83216723D01*
X177428571Y-83454819D02*
X177333333Y-83407200D01*
X177333333Y-83407200D02*
X177238095Y-83311961D01*
X177238095Y-83311961D02*
X177190476Y-83121485D01*
X177190476Y-83121485D02*
X177190476Y-82788152D01*
X177190476Y-82788152D02*
X177238095Y-82597676D01*
X177238095Y-82597676D02*
X177333333Y-82502438D01*
X177333333Y-82502438D02*
X177428571Y-82454819D01*
X177428571Y-82454819D02*
X177619047Y-82454819D01*
X177619047Y-82454819D02*
X177714285Y-82502438D01*
X177714285Y-82502438D02*
X177809523Y-82597676D01*
X177809523Y-82597676D02*
X177857142Y-82788152D01*
X177857142Y-82788152D02*
X177857142Y-83121485D01*
X177857142Y-83121485D02*
X177809523Y-83311961D01*
X177809523Y-83311961D02*
X177714285Y-83407200D01*
X177714285Y-83407200D02*
X177619047Y-83454819D01*
X177619047Y-83454819D02*
X177428571Y-83454819D01*
X178809523Y-83454819D02*
X178238095Y-83454819D01*
X178523809Y-83454819D02*
X178523809Y-82454819D01*
X178523809Y-82454819D02*
X178428571Y-82597676D01*
X178428571Y-82597676D02*
X178333333Y-82692914D01*
X178333333Y-82692914D02*
X178238095Y-82740533D01*
X118666666Y-158454819D02*
X118666666Y-159169104D01*
X118666666Y-159169104D02*
X118619047Y-159311961D01*
X118619047Y-159311961D02*
X118523809Y-159407200D01*
X118523809Y-159407200D02*
X118380952Y-159454819D01*
X118380952Y-159454819D02*
X118285714Y-159454819D01*
X119666666Y-159454819D02*
X119095238Y-159454819D01*
X119380952Y-159454819D02*
X119380952Y-158454819D01*
X119380952Y-158454819D02*
X119285714Y-158597676D01*
X119285714Y-158597676D02*
X119190476Y-158692914D01*
X119190476Y-158692914D02*
X119095238Y-158740533D01*
X141666666Y-148454819D02*
X141666666Y-149169104D01*
X141666666Y-149169104D02*
X141619047Y-149311961D01*
X141619047Y-149311961D02*
X141523809Y-149407200D01*
X141523809Y-149407200D02*
X141380952Y-149454819D01*
X141380952Y-149454819D02*
X141285714Y-149454819D01*
X142571428Y-148454819D02*
X142380952Y-148454819D01*
X142380952Y-148454819D02*
X142285714Y-148502438D01*
X142285714Y-148502438D02*
X142238095Y-148550057D01*
X142238095Y-148550057D02*
X142142857Y-148692914D01*
X142142857Y-148692914D02*
X142095238Y-148883390D01*
X142095238Y-148883390D02*
X142095238Y-149264342D01*
X142095238Y-149264342D02*
X142142857Y-149359580D01*
X142142857Y-149359580D02*
X142190476Y-149407200D01*
X142190476Y-149407200D02*
X142285714Y-149454819D01*
X142285714Y-149454819D02*
X142476190Y-149454819D01*
X142476190Y-149454819D02*
X142571428Y-149407200D01*
X142571428Y-149407200D02*
X142619047Y-149359580D01*
X142619047Y-149359580D02*
X142666666Y-149264342D01*
X142666666Y-149264342D02*
X142666666Y-149026247D01*
X142666666Y-149026247D02*
X142619047Y-148931009D01*
X142619047Y-148931009D02*
X142571428Y-148883390D01*
X142571428Y-148883390D02*
X142476190Y-148835771D01*
X142476190Y-148835771D02*
X142285714Y-148835771D01*
X142285714Y-148835771D02*
X142190476Y-148883390D01*
X142190476Y-148883390D02*
X142142857Y-148931009D01*
X142142857Y-148931009D02*
X142095238Y-149026247D01*
X190988095Y-25554819D02*
X190988095Y-24554819D01*
X190988095Y-25031009D02*
X191559523Y-25031009D01*
X191559523Y-25554819D02*
X191559523Y-24554819D01*
X191988095Y-24650057D02*
X192035714Y-24602438D01*
X192035714Y-24602438D02*
X192130952Y-24554819D01*
X192130952Y-24554819D02*
X192369047Y-24554819D01*
X192369047Y-24554819D02*
X192464285Y-24602438D01*
X192464285Y-24602438D02*
X192511904Y-24650057D01*
X192511904Y-24650057D02*
X192559523Y-24745295D01*
X192559523Y-24745295D02*
X192559523Y-24840533D01*
X192559523Y-24840533D02*
X192511904Y-24983390D01*
X192511904Y-24983390D02*
X191940476Y-25554819D01*
X191940476Y-25554819D02*
X192559523Y-25554819D01*
X127833333Y-101454819D02*
X127500000Y-100978628D01*
X127261905Y-101454819D02*
X127261905Y-100454819D01*
X127261905Y-100454819D02*
X127642857Y-100454819D01*
X127642857Y-100454819D02*
X127738095Y-100502438D01*
X127738095Y-100502438D02*
X127785714Y-100550057D01*
X127785714Y-100550057D02*
X127833333Y-100645295D01*
X127833333Y-100645295D02*
X127833333Y-100788152D01*
X127833333Y-100788152D02*
X127785714Y-100883390D01*
X127785714Y-100883390D02*
X127738095Y-100931009D01*
X127738095Y-100931009D02*
X127642857Y-100978628D01*
X127642857Y-100978628D02*
X127261905Y-100978628D01*
X128690476Y-100788152D02*
X128690476Y-101454819D01*
X128452381Y-100407200D02*
X128214286Y-101121485D01*
X128214286Y-101121485D02*
X128833333Y-101121485D01*
X118666666Y-104454819D02*
X118666666Y-105169104D01*
X118666666Y-105169104D02*
X118619047Y-105311961D01*
X118619047Y-105311961D02*
X118523809Y-105407200D01*
X118523809Y-105407200D02*
X118380952Y-105454819D01*
X118380952Y-105454819D02*
X118285714Y-105454819D01*
X119619047Y-104454819D02*
X119142857Y-104454819D01*
X119142857Y-104454819D02*
X119095238Y-104931009D01*
X119095238Y-104931009D02*
X119142857Y-104883390D01*
X119142857Y-104883390D02*
X119238095Y-104835771D01*
X119238095Y-104835771D02*
X119476190Y-104835771D01*
X119476190Y-104835771D02*
X119571428Y-104883390D01*
X119571428Y-104883390D02*
X119619047Y-104931009D01*
X119619047Y-104931009D02*
X119666666Y-105026247D01*
X119666666Y-105026247D02*
X119666666Y-105264342D01*
X119666666Y-105264342D02*
X119619047Y-105359580D01*
X119619047Y-105359580D02*
X119571428Y-105407200D01*
X119571428Y-105407200D02*
X119476190Y-105454819D01*
X119476190Y-105454819D02*
X119238095Y-105454819D01*
X119238095Y-105454819D02*
X119142857Y-105407200D01*
X119142857Y-105407200D02*
X119095238Y-105359580D01*
X149833333Y-156454819D02*
X149500000Y-155978628D01*
X149261905Y-156454819D02*
X149261905Y-155454819D01*
X149261905Y-155454819D02*
X149642857Y-155454819D01*
X149642857Y-155454819D02*
X149738095Y-155502438D01*
X149738095Y-155502438D02*
X149785714Y-155550057D01*
X149785714Y-155550057D02*
X149833333Y-155645295D01*
X149833333Y-155645295D02*
X149833333Y-155788152D01*
X149833333Y-155788152D02*
X149785714Y-155883390D01*
X149785714Y-155883390D02*
X149738095Y-155931009D01*
X149738095Y-155931009D02*
X149642857Y-155978628D01*
X149642857Y-155978628D02*
X149261905Y-155978628D01*
X150166667Y-155454819D02*
X150833333Y-155454819D01*
X150833333Y-155454819D02*
X150404762Y-156454819D01*
X149833333Y-149454819D02*
X149500000Y-148978628D01*
X149261905Y-149454819D02*
X149261905Y-148454819D01*
X149261905Y-148454819D02*
X149642857Y-148454819D01*
X149642857Y-148454819D02*
X149738095Y-148502438D01*
X149738095Y-148502438D02*
X149785714Y-148550057D01*
X149785714Y-148550057D02*
X149833333Y-148645295D01*
X149833333Y-148645295D02*
X149833333Y-148788152D01*
X149833333Y-148788152D02*
X149785714Y-148883390D01*
X149785714Y-148883390D02*
X149738095Y-148931009D01*
X149738095Y-148931009D02*
X149642857Y-148978628D01*
X149642857Y-148978628D02*
X149261905Y-148978628D01*
X150690476Y-148454819D02*
X150500000Y-148454819D01*
X150500000Y-148454819D02*
X150404762Y-148502438D01*
X150404762Y-148502438D02*
X150357143Y-148550057D01*
X150357143Y-148550057D02*
X150261905Y-148692914D01*
X150261905Y-148692914D02*
X150214286Y-148883390D01*
X150214286Y-148883390D02*
X150214286Y-149264342D01*
X150214286Y-149264342D02*
X150261905Y-149359580D01*
X150261905Y-149359580D02*
X150309524Y-149407200D01*
X150309524Y-149407200D02*
X150404762Y-149454819D01*
X150404762Y-149454819D02*
X150595238Y-149454819D01*
X150595238Y-149454819D02*
X150690476Y-149407200D01*
X150690476Y-149407200D02*
X150738095Y-149359580D01*
X150738095Y-149359580D02*
X150785714Y-149264342D01*
X150785714Y-149264342D02*
X150785714Y-149026247D01*
X150785714Y-149026247D02*
X150738095Y-148931009D01*
X150738095Y-148931009D02*
X150690476Y-148883390D01*
X150690476Y-148883390D02*
X150595238Y-148835771D01*
X150595238Y-148835771D02*
X150404762Y-148835771D01*
X150404762Y-148835771D02*
X150309524Y-148883390D01*
X150309524Y-148883390D02*
X150261905Y-148931009D01*
X150261905Y-148931009D02*
X150214286Y-149026247D01*
X107488095Y-169054819D02*
X107488095Y-168054819D01*
X107488095Y-168531009D02*
X108059523Y-168531009D01*
X108059523Y-169054819D02*
X108059523Y-168054819D01*
X108964285Y-168388152D02*
X108964285Y-169054819D01*
X108726190Y-168007200D02*
X108488095Y-168721485D01*
X108488095Y-168721485D02*
X109107142Y-168721485D01*
X180666666Y-36454819D02*
X180666666Y-37169104D01*
X180666666Y-37169104D02*
X180619047Y-37311961D01*
X180619047Y-37311961D02*
X180523809Y-37407200D01*
X180523809Y-37407200D02*
X180380952Y-37454819D01*
X180380952Y-37454819D02*
X180285714Y-37454819D01*
X181571428Y-36788152D02*
X181571428Y-37454819D01*
X181333333Y-36407200D02*
X181095238Y-37121485D01*
X181095238Y-37121485D02*
X181714285Y-37121485D01*
X107488095Y-25554819D02*
X107488095Y-24554819D01*
X107488095Y-25031009D02*
X108059523Y-25031009D01*
X108059523Y-25554819D02*
X108059523Y-24554819D01*
X109059523Y-25554819D02*
X108488095Y-25554819D01*
X108773809Y-25554819D02*
X108773809Y-24554819D01*
X108773809Y-24554819D02*
X108678571Y-24697676D01*
X108678571Y-24697676D02*
X108583333Y-24792914D01*
X108583333Y-24792914D02*
X108488095Y-24840533D01*
X171666666Y-158454819D02*
X171666666Y-159169104D01*
X171666666Y-159169104D02*
X171619047Y-159311961D01*
X171619047Y-159311961D02*
X171523809Y-159407200D01*
X171523809Y-159407200D02*
X171380952Y-159454819D01*
X171380952Y-159454819D02*
X171285714Y-159454819D01*
X172285714Y-158883390D02*
X172190476Y-158835771D01*
X172190476Y-158835771D02*
X172142857Y-158788152D01*
X172142857Y-158788152D02*
X172095238Y-158692914D01*
X172095238Y-158692914D02*
X172095238Y-158645295D01*
X172095238Y-158645295D02*
X172142857Y-158550057D01*
X172142857Y-158550057D02*
X172190476Y-158502438D01*
X172190476Y-158502438D02*
X172285714Y-158454819D01*
X172285714Y-158454819D02*
X172476190Y-158454819D01*
X172476190Y-158454819D02*
X172571428Y-158502438D01*
X172571428Y-158502438D02*
X172619047Y-158550057D01*
X172619047Y-158550057D02*
X172666666Y-158645295D01*
X172666666Y-158645295D02*
X172666666Y-158692914D01*
X172666666Y-158692914D02*
X172619047Y-158788152D01*
X172619047Y-158788152D02*
X172571428Y-158835771D01*
X172571428Y-158835771D02*
X172476190Y-158883390D01*
X172476190Y-158883390D02*
X172285714Y-158883390D01*
X172285714Y-158883390D02*
X172190476Y-158931009D01*
X172190476Y-158931009D02*
X172142857Y-158978628D01*
X172142857Y-158978628D02*
X172095238Y-159073866D01*
X172095238Y-159073866D02*
X172095238Y-159264342D01*
X172095238Y-159264342D02*
X172142857Y-159359580D01*
X172142857Y-159359580D02*
X172190476Y-159407200D01*
X172190476Y-159407200D02*
X172285714Y-159454819D01*
X172285714Y-159454819D02*
X172476190Y-159454819D01*
X172476190Y-159454819D02*
X172571428Y-159407200D01*
X172571428Y-159407200D02*
X172619047Y-159359580D01*
X172619047Y-159359580D02*
X172666666Y-159264342D01*
X172666666Y-159264342D02*
X172666666Y-159073866D01*
X172666666Y-159073866D02*
X172619047Y-158978628D01*
X172619047Y-158978628D02*
X172571428Y-158931009D01*
X172571428Y-158931009D02*
X172476190Y-158883390D01*
X190988095Y-169054819D02*
X190988095Y-168054819D01*
X190988095Y-168531009D02*
X191559523Y-168531009D01*
X191559523Y-169054819D02*
X191559523Y-168054819D01*
X191940476Y-168054819D02*
X192559523Y-168054819D01*
X192559523Y-168054819D02*
X192226190Y-168435771D01*
X192226190Y-168435771D02*
X192369047Y-168435771D01*
X192369047Y-168435771D02*
X192464285Y-168483390D01*
X192464285Y-168483390D02*
X192511904Y-168531009D01*
X192511904Y-168531009D02*
X192559523Y-168626247D01*
X192559523Y-168626247D02*
X192559523Y-168864342D01*
X192559523Y-168864342D02*
X192511904Y-168959580D01*
X192511904Y-168959580D02*
X192464285Y-169007200D01*
X192464285Y-169007200D02*
X192369047Y-169054819D01*
X192369047Y-169054819D02*
X192083333Y-169054819D01*
X192083333Y-169054819D02*
X191988095Y-169007200D01*
X191988095Y-169007200D02*
X191940476Y-168959580D01*
X127833333Y-108454819D02*
X127500000Y-107978628D01*
X127261905Y-108454819D02*
X127261905Y-107454819D01*
X127261905Y-107454819D02*
X127642857Y-107454819D01*
X127642857Y-107454819D02*
X127738095Y-107502438D01*
X127738095Y-107502438D02*
X127785714Y-107550057D01*
X127785714Y-107550057D02*
X127833333Y-107645295D01*
X127833333Y-107645295D02*
X127833333Y-107788152D01*
X127833333Y-107788152D02*
X127785714Y-107883390D01*
X127785714Y-107883390D02*
X127738095Y-107931009D01*
X127738095Y-107931009D02*
X127642857Y-107978628D01*
X127642857Y-107978628D02*
X127261905Y-107978628D01*
X128738095Y-107454819D02*
X128261905Y-107454819D01*
X128261905Y-107454819D02*
X128214286Y-107931009D01*
X128214286Y-107931009D02*
X128261905Y-107883390D01*
X128261905Y-107883390D02*
X128357143Y-107835771D01*
X128357143Y-107835771D02*
X128595238Y-107835771D01*
X128595238Y-107835771D02*
X128690476Y-107883390D01*
X128690476Y-107883390D02*
X128738095Y-107931009D01*
X128738095Y-107931009D02*
X128785714Y-108026247D01*
X128785714Y-108026247D02*
X128785714Y-108264342D01*
X128785714Y-108264342D02*
X128738095Y-108359580D01*
X128738095Y-108359580D02*
X128690476Y-108407200D01*
X128690476Y-108407200D02*
X128595238Y-108454819D01*
X128595238Y-108454819D02*
X128357143Y-108454819D01*
X128357143Y-108454819D02*
X128261905Y-108407200D01*
X128261905Y-108407200D02*
X128214286Y-108359580D01*
X118666666Y-136454819D02*
X118666666Y-137169104D01*
X118666666Y-137169104D02*
X118619047Y-137311961D01*
X118619047Y-137311961D02*
X118523809Y-137407200D01*
X118523809Y-137407200D02*
X118380952Y-137454819D01*
X118380952Y-137454819D02*
X118285714Y-137454819D01*
X119047619Y-136454819D02*
X119714285Y-136454819D01*
X119714285Y-136454819D02*
X119285714Y-137454819D01*
X118666666Y-36454819D02*
X118666666Y-37169104D01*
X118666666Y-37169104D02*
X118619047Y-37311961D01*
X118619047Y-37311961D02*
X118523809Y-37407200D01*
X118523809Y-37407200D02*
X118380952Y-37454819D01*
X118380952Y-37454819D02*
X118285714Y-37454819D01*
X119047619Y-36454819D02*
X119666666Y-36454819D01*
X119666666Y-36454819D02*
X119333333Y-36835771D01*
X119333333Y-36835771D02*
X119476190Y-36835771D01*
X119476190Y-36835771D02*
X119571428Y-36883390D01*
X119571428Y-36883390D02*
X119619047Y-36931009D01*
X119619047Y-36931009D02*
X119666666Y-37026247D01*
X119666666Y-37026247D02*
X119666666Y-37264342D01*
X119666666Y-37264342D02*
X119619047Y-37359580D01*
X119619047Y-37359580D02*
X119571428Y-37407200D01*
X119571428Y-37407200D02*
X119476190Y-37454819D01*
X119476190Y-37454819D02*
X119190476Y-37454819D01*
X119190476Y-37454819D02*
X119095238Y-37407200D01*
X119095238Y-37407200D02*
X119047619Y-37359580D01*
X184666666Y-81454819D02*
X184666666Y-82169104D01*
X184666666Y-82169104D02*
X184619047Y-82311961D01*
X184619047Y-82311961D02*
X184523809Y-82407200D01*
X184523809Y-82407200D02*
X184380952Y-82454819D01*
X184380952Y-82454819D02*
X184285714Y-82454819D01*
X185190476Y-82454819D02*
X185380952Y-82454819D01*
X185380952Y-82454819D02*
X185476190Y-82407200D01*
X185476190Y-82407200D02*
X185523809Y-82359580D01*
X185523809Y-82359580D02*
X185619047Y-82216723D01*
X185619047Y-82216723D02*
X185666666Y-82026247D01*
X185666666Y-82026247D02*
X185666666Y-81645295D01*
X185666666Y-81645295D02*
X185619047Y-81550057D01*
X185619047Y-81550057D02*
X185571428Y-81502438D01*
X185571428Y-81502438D02*
X185476190Y-81454819D01*
X185476190Y-81454819D02*
X185285714Y-81454819D01*
X185285714Y-81454819D02*
X185190476Y-81502438D01*
X185190476Y-81502438D02*
X185142857Y-81550057D01*
X185142857Y-81550057D02*
X185095238Y-81645295D01*
X185095238Y-81645295D02*
X185095238Y-81883390D01*
X185095238Y-81883390D02*
X185142857Y-81978628D01*
X185142857Y-81978628D02*
X185190476Y-82026247D01*
X185190476Y-82026247D02*
X185285714Y-82073866D01*
X185285714Y-82073866D02*
X185476190Y-82073866D01*
X185476190Y-82073866D02*
X185571428Y-82026247D01*
X185571428Y-82026247D02*
X185619047Y-81978628D01*
X185619047Y-81978628D02*
X185666666Y-81883390D01*
X149238095Y-88454819D02*
X149238095Y-89264342D01*
X149238095Y-89264342D02*
X149285714Y-89359580D01*
X149285714Y-89359580D02*
X149333333Y-89407200D01*
X149333333Y-89407200D02*
X149428571Y-89454819D01*
X149428571Y-89454819D02*
X149619047Y-89454819D01*
X149619047Y-89454819D02*
X149714285Y-89407200D01*
X149714285Y-89407200D02*
X149761904Y-89359580D01*
X149761904Y-89359580D02*
X149809523Y-89264342D01*
X149809523Y-89264342D02*
X149809523Y-88454819D01*
X150809523Y-89454819D02*
X150238095Y-89454819D01*
X150523809Y-89454819D02*
X150523809Y-88454819D01*
X150523809Y-88454819D02*
X150428571Y-88597676D01*
X150428571Y-88597676D02*
X150333333Y-88692914D01*
X150333333Y-88692914D02*
X150238095Y-88740533D01*
X132458458Y-74157128D02*
X132758458Y-74157128D01*
X132887030Y-74628557D02*
X132458458Y-74628557D01*
X132458458Y-74628557D02*
X132458458Y-73728557D01*
X132458458Y-73728557D02*
X132887030Y-73728557D01*
X133272744Y-74628557D02*
X133272744Y-73728557D01*
X133272744Y-73728557D02*
X133787030Y-74628557D01*
X133787030Y-74628557D02*
X133787030Y-73728557D01*
X132415601Y-76268557D02*
X132972744Y-76268557D01*
X132972744Y-76268557D02*
X132672744Y-76611414D01*
X132672744Y-76611414D02*
X132801315Y-76611414D01*
X132801315Y-76611414D02*
X132887030Y-76654271D01*
X132887030Y-76654271D02*
X132929887Y-76697128D01*
X132929887Y-76697128D02*
X132972744Y-76782842D01*
X132972744Y-76782842D02*
X132972744Y-76997128D01*
X132972744Y-76997128D02*
X132929887Y-77082842D01*
X132929887Y-77082842D02*
X132887030Y-77125700D01*
X132887030Y-77125700D02*
X132801315Y-77168557D01*
X132801315Y-77168557D02*
X132544172Y-77168557D01*
X132544172Y-77168557D02*
X132458458Y-77125700D01*
X132458458Y-77125700D02*
X132415601Y-77082842D01*
X133744173Y-76268557D02*
X133572744Y-76268557D01*
X133572744Y-76268557D02*
X133487030Y-76311414D01*
X133487030Y-76311414D02*
X133444173Y-76354271D01*
X133444173Y-76354271D02*
X133358458Y-76482842D01*
X133358458Y-76482842D02*
X133315601Y-76654271D01*
X133315601Y-76654271D02*
X133315601Y-76997128D01*
X133315601Y-76997128D02*
X133358458Y-77082842D01*
X133358458Y-77082842D02*
X133401315Y-77125700D01*
X133401315Y-77125700D02*
X133487030Y-77168557D01*
X133487030Y-77168557D02*
X133658458Y-77168557D01*
X133658458Y-77168557D02*
X133744173Y-77125700D01*
X133744173Y-77125700D02*
X133787030Y-77082842D01*
X133787030Y-77082842D02*
X133829887Y-76997128D01*
X133829887Y-76997128D02*
X133829887Y-76782842D01*
X133829887Y-76782842D02*
X133787030Y-76697128D01*
X133787030Y-76697128D02*
X133744173Y-76654271D01*
X133744173Y-76654271D02*
X133658458Y-76611414D01*
X133658458Y-76611414D02*
X133487030Y-76611414D01*
X133487030Y-76611414D02*
X133401315Y-76654271D01*
X133401315Y-76654271D02*
X133358458Y-76697128D01*
X133358458Y-76697128D02*
X133315601Y-76782842D01*
X132415601Y-78808557D02*
X132972744Y-78808557D01*
X132972744Y-78808557D02*
X132672744Y-79151414D01*
X132672744Y-79151414D02*
X132801315Y-79151414D01*
X132801315Y-79151414D02*
X132887030Y-79194271D01*
X132887030Y-79194271D02*
X132929887Y-79237128D01*
X132929887Y-79237128D02*
X132972744Y-79322842D01*
X132972744Y-79322842D02*
X132972744Y-79537128D01*
X132972744Y-79537128D02*
X132929887Y-79622842D01*
X132929887Y-79622842D02*
X132887030Y-79665700D01*
X132887030Y-79665700D02*
X132801315Y-79708557D01*
X132801315Y-79708557D02*
X132544172Y-79708557D01*
X132544172Y-79708557D02*
X132458458Y-79665700D01*
X132458458Y-79665700D02*
X132415601Y-79622842D01*
X133401315Y-79708557D02*
X133572744Y-79708557D01*
X133572744Y-79708557D02*
X133658458Y-79665700D01*
X133658458Y-79665700D02*
X133701315Y-79622842D01*
X133701315Y-79622842D02*
X133787030Y-79494271D01*
X133787030Y-79494271D02*
X133829887Y-79322842D01*
X133829887Y-79322842D02*
X133829887Y-78979985D01*
X133829887Y-78979985D02*
X133787030Y-78894271D01*
X133787030Y-78894271D02*
X133744173Y-78851414D01*
X133744173Y-78851414D02*
X133658458Y-78808557D01*
X133658458Y-78808557D02*
X133487030Y-78808557D01*
X133487030Y-78808557D02*
X133401315Y-78851414D01*
X133401315Y-78851414D02*
X133358458Y-78894271D01*
X133358458Y-78894271D02*
X133315601Y-78979985D01*
X133315601Y-78979985D02*
X133315601Y-79194271D01*
X133315601Y-79194271D02*
X133358458Y-79279985D01*
X133358458Y-79279985D02*
X133401315Y-79322842D01*
X133401315Y-79322842D02*
X133487030Y-79365700D01*
X133487030Y-79365700D02*
X133658458Y-79365700D01*
X133658458Y-79365700D02*
X133744173Y-79322842D01*
X133744173Y-79322842D02*
X133787030Y-79279985D01*
X133787030Y-79279985D02*
X133829887Y-79194271D01*
X132415601Y-81348557D02*
X132972744Y-81348557D01*
X132972744Y-81348557D02*
X132672744Y-81691414D01*
X132672744Y-81691414D02*
X132801315Y-81691414D01*
X132801315Y-81691414D02*
X132887030Y-81734271D01*
X132887030Y-81734271D02*
X132929887Y-81777128D01*
X132929887Y-81777128D02*
X132972744Y-81862842D01*
X132972744Y-81862842D02*
X132972744Y-82077128D01*
X132972744Y-82077128D02*
X132929887Y-82162842D01*
X132929887Y-82162842D02*
X132887030Y-82205700D01*
X132887030Y-82205700D02*
X132801315Y-82248557D01*
X132801315Y-82248557D02*
X132544172Y-82248557D01*
X132544172Y-82248557D02*
X132458458Y-82205700D01*
X132458458Y-82205700D02*
X132415601Y-82162842D01*
X133744173Y-81648557D02*
X133744173Y-82248557D01*
X133529887Y-81305700D02*
X133315601Y-81948557D01*
X133315601Y-81948557D02*
X133872744Y-81948557D01*
X132415601Y-83888557D02*
X132972744Y-83888557D01*
X132972744Y-83888557D02*
X132672744Y-84231414D01*
X132672744Y-84231414D02*
X132801315Y-84231414D01*
X132801315Y-84231414D02*
X132887030Y-84274271D01*
X132887030Y-84274271D02*
X132929887Y-84317128D01*
X132929887Y-84317128D02*
X132972744Y-84402842D01*
X132972744Y-84402842D02*
X132972744Y-84617128D01*
X132972744Y-84617128D02*
X132929887Y-84702842D01*
X132929887Y-84702842D02*
X132887030Y-84745700D01*
X132887030Y-84745700D02*
X132801315Y-84788557D01*
X132801315Y-84788557D02*
X132544172Y-84788557D01*
X132544172Y-84788557D02*
X132458458Y-84745700D01*
X132458458Y-84745700D02*
X132415601Y-84702842D01*
X133787030Y-83888557D02*
X133358458Y-83888557D01*
X133358458Y-83888557D02*
X133315601Y-84317128D01*
X133315601Y-84317128D02*
X133358458Y-84274271D01*
X133358458Y-84274271D02*
X133444173Y-84231414D01*
X133444173Y-84231414D02*
X133658458Y-84231414D01*
X133658458Y-84231414D02*
X133744173Y-84274271D01*
X133744173Y-84274271D02*
X133787030Y-84317128D01*
X133787030Y-84317128D02*
X133829887Y-84402842D01*
X133829887Y-84402842D02*
X133829887Y-84617128D01*
X133829887Y-84617128D02*
X133787030Y-84702842D01*
X133787030Y-84702842D02*
X133744173Y-84745700D01*
X133744173Y-84745700D02*
X133658458Y-84788557D01*
X133658458Y-84788557D02*
X133444173Y-84788557D01*
X133444173Y-84788557D02*
X133358458Y-84745700D01*
X133358458Y-84745700D02*
X133315601Y-84702842D01*
X132415601Y-86428557D02*
X132972744Y-86428557D01*
X132972744Y-86428557D02*
X132672744Y-86771414D01*
X132672744Y-86771414D02*
X132801315Y-86771414D01*
X132801315Y-86771414D02*
X132887030Y-86814271D01*
X132887030Y-86814271D02*
X132929887Y-86857128D01*
X132929887Y-86857128D02*
X132972744Y-86942842D01*
X132972744Y-86942842D02*
X132972744Y-87157128D01*
X132972744Y-87157128D02*
X132929887Y-87242842D01*
X132929887Y-87242842D02*
X132887030Y-87285700D01*
X132887030Y-87285700D02*
X132801315Y-87328557D01*
X132801315Y-87328557D02*
X132544172Y-87328557D01*
X132544172Y-87328557D02*
X132458458Y-87285700D01*
X132458458Y-87285700D02*
X132415601Y-87242842D01*
X133315601Y-86514271D02*
X133358458Y-86471414D01*
X133358458Y-86471414D02*
X133444173Y-86428557D01*
X133444173Y-86428557D02*
X133658458Y-86428557D01*
X133658458Y-86428557D02*
X133744173Y-86471414D01*
X133744173Y-86471414D02*
X133787030Y-86514271D01*
X133787030Y-86514271D02*
X133829887Y-86599985D01*
X133829887Y-86599985D02*
X133829887Y-86685700D01*
X133829887Y-86685700D02*
X133787030Y-86814271D01*
X133787030Y-86814271D02*
X133272744Y-87328557D01*
X133272744Y-87328557D02*
X133829887Y-87328557D01*
X132415601Y-88968557D02*
X132972744Y-88968557D01*
X132972744Y-88968557D02*
X132672744Y-89311414D01*
X132672744Y-89311414D02*
X132801315Y-89311414D01*
X132801315Y-89311414D02*
X132887030Y-89354271D01*
X132887030Y-89354271D02*
X132929887Y-89397128D01*
X132929887Y-89397128D02*
X132972744Y-89482842D01*
X132972744Y-89482842D02*
X132972744Y-89697128D01*
X132972744Y-89697128D02*
X132929887Y-89782842D01*
X132929887Y-89782842D02*
X132887030Y-89825700D01*
X132887030Y-89825700D02*
X132801315Y-89868557D01*
X132801315Y-89868557D02*
X132544172Y-89868557D01*
X132544172Y-89868557D02*
X132458458Y-89825700D01*
X132458458Y-89825700D02*
X132415601Y-89782842D01*
X133272744Y-88968557D02*
X133829887Y-88968557D01*
X133829887Y-88968557D02*
X133529887Y-89311414D01*
X133529887Y-89311414D02*
X133658458Y-89311414D01*
X133658458Y-89311414D02*
X133744173Y-89354271D01*
X133744173Y-89354271D02*
X133787030Y-89397128D01*
X133787030Y-89397128D02*
X133829887Y-89482842D01*
X133829887Y-89482842D02*
X133829887Y-89697128D01*
X133829887Y-89697128D02*
X133787030Y-89782842D01*
X133787030Y-89782842D02*
X133744173Y-89825700D01*
X133744173Y-89825700D02*
X133658458Y-89868557D01*
X133658458Y-89868557D02*
X133401315Y-89868557D01*
X133401315Y-89868557D02*
X133315601Y-89825700D01*
X133315601Y-89825700D02*
X133272744Y-89782842D01*
X132458458Y-91594271D02*
X132501315Y-91551414D01*
X132501315Y-91551414D02*
X132587030Y-91508557D01*
X132587030Y-91508557D02*
X132801315Y-91508557D01*
X132801315Y-91508557D02*
X132887030Y-91551414D01*
X132887030Y-91551414D02*
X132929887Y-91594271D01*
X132929887Y-91594271D02*
X132972744Y-91679985D01*
X132972744Y-91679985D02*
X132972744Y-91765700D01*
X132972744Y-91765700D02*
X132929887Y-91894271D01*
X132929887Y-91894271D02*
X132415601Y-92408557D01*
X132415601Y-92408557D02*
X132972744Y-92408557D01*
X133787030Y-91508557D02*
X133358458Y-91508557D01*
X133358458Y-91508557D02*
X133315601Y-91937128D01*
X133315601Y-91937128D02*
X133358458Y-91894271D01*
X133358458Y-91894271D02*
X133444173Y-91851414D01*
X133444173Y-91851414D02*
X133658458Y-91851414D01*
X133658458Y-91851414D02*
X133744173Y-91894271D01*
X133744173Y-91894271D02*
X133787030Y-91937128D01*
X133787030Y-91937128D02*
X133829887Y-92022842D01*
X133829887Y-92022842D02*
X133829887Y-92237128D01*
X133829887Y-92237128D02*
X133787030Y-92322842D01*
X133787030Y-92322842D02*
X133744173Y-92365700D01*
X133744173Y-92365700D02*
X133658458Y-92408557D01*
X133658458Y-92408557D02*
X133444173Y-92408557D01*
X133444173Y-92408557D02*
X133358458Y-92365700D01*
X133358458Y-92365700D02*
X133315601Y-92322842D01*
X132458458Y-94134271D02*
X132501315Y-94091414D01*
X132501315Y-94091414D02*
X132587030Y-94048557D01*
X132587030Y-94048557D02*
X132801315Y-94048557D01*
X132801315Y-94048557D02*
X132887030Y-94091414D01*
X132887030Y-94091414D02*
X132929887Y-94134271D01*
X132929887Y-94134271D02*
X132972744Y-94219985D01*
X132972744Y-94219985D02*
X132972744Y-94305700D01*
X132972744Y-94305700D02*
X132929887Y-94434271D01*
X132929887Y-94434271D02*
X132415601Y-94948557D01*
X132415601Y-94948557D02*
X132972744Y-94948557D01*
X133744173Y-94048557D02*
X133572744Y-94048557D01*
X133572744Y-94048557D02*
X133487030Y-94091414D01*
X133487030Y-94091414D02*
X133444173Y-94134271D01*
X133444173Y-94134271D02*
X133358458Y-94262842D01*
X133358458Y-94262842D02*
X133315601Y-94434271D01*
X133315601Y-94434271D02*
X133315601Y-94777128D01*
X133315601Y-94777128D02*
X133358458Y-94862842D01*
X133358458Y-94862842D02*
X133401315Y-94905700D01*
X133401315Y-94905700D02*
X133487030Y-94948557D01*
X133487030Y-94948557D02*
X133658458Y-94948557D01*
X133658458Y-94948557D02*
X133744173Y-94905700D01*
X133744173Y-94905700D02*
X133787030Y-94862842D01*
X133787030Y-94862842D02*
X133829887Y-94777128D01*
X133829887Y-94777128D02*
X133829887Y-94562842D01*
X133829887Y-94562842D02*
X133787030Y-94477128D01*
X133787030Y-94477128D02*
X133744173Y-94434271D01*
X133744173Y-94434271D02*
X133658458Y-94391414D01*
X133658458Y-94391414D02*
X133487030Y-94391414D01*
X133487030Y-94391414D02*
X133401315Y-94434271D01*
X133401315Y-94434271D02*
X133358458Y-94477128D01*
X133358458Y-94477128D02*
X133315601Y-94562842D01*
X132458458Y-96674271D02*
X132501315Y-96631414D01*
X132501315Y-96631414D02*
X132587030Y-96588557D01*
X132587030Y-96588557D02*
X132801315Y-96588557D01*
X132801315Y-96588557D02*
X132887030Y-96631414D01*
X132887030Y-96631414D02*
X132929887Y-96674271D01*
X132929887Y-96674271D02*
X132972744Y-96759985D01*
X132972744Y-96759985D02*
X132972744Y-96845700D01*
X132972744Y-96845700D02*
X132929887Y-96974271D01*
X132929887Y-96974271D02*
X132415601Y-97488557D01*
X132415601Y-97488557D02*
X132972744Y-97488557D01*
X133272744Y-96588557D02*
X133872744Y-96588557D01*
X133872744Y-96588557D02*
X133487030Y-97488557D01*
X132972744Y-100028557D02*
X132458458Y-100028557D01*
X132715601Y-100028557D02*
X132715601Y-99128557D01*
X132715601Y-99128557D02*
X132629887Y-99257128D01*
X132629887Y-99257128D02*
X132544172Y-99342842D01*
X132544172Y-99342842D02*
X132458458Y-99385700D01*
X133744173Y-99428557D02*
X133744173Y-100028557D01*
X133529887Y-99085700D02*
X133315601Y-99728557D01*
X133315601Y-99728557D02*
X133872744Y-99728557D01*
X132972744Y-102568557D02*
X132458458Y-102568557D01*
X132715601Y-102568557D02*
X132715601Y-101668557D01*
X132715601Y-101668557D02*
X132629887Y-101797128D01*
X132629887Y-101797128D02*
X132544172Y-101882842D01*
X132544172Y-101882842D02*
X132458458Y-101925700D01*
X133315601Y-101754271D02*
X133358458Y-101711414D01*
X133358458Y-101711414D02*
X133444173Y-101668557D01*
X133444173Y-101668557D02*
X133658458Y-101668557D01*
X133658458Y-101668557D02*
X133744173Y-101711414D01*
X133744173Y-101711414D02*
X133787030Y-101754271D01*
X133787030Y-101754271D02*
X133829887Y-101839985D01*
X133829887Y-101839985D02*
X133829887Y-101925700D01*
X133829887Y-101925700D02*
X133787030Y-102054271D01*
X133787030Y-102054271D02*
X133272744Y-102568557D01*
X133272744Y-102568557D02*
X133829887Y-102568557D01*
X132972744Y-105108557D02*
X132458458Y-105108557D01*
X132715601Y-105108557D02*
X132715601Y-104208557D01*
X132715601Y-104208557D02*
X132629887Y-104337128D01*
X132629887Y-104337128D02*
X132544172Y-104422842D01*
X132544172Y-104422842D02*
X132458458Y-104465700D01*
X133272744Y-104208557D02*
X133829887Y-104208557D01*
X133829887Y-104208557D02*
X133529887Y-104551414D01*
X133529887Y-104551414D02*
X133658458Y-104551414D01*
X133658458Y-104551414D02*
X133744173Y-104594271D01*
X133744173Y-104594271D02*
X133787030Y-104637128D01*
X133787030Y-104637128D02*
X133829887Y-104722842D01*
X133829887Y-104722842D02*
X133829887Y-104937128D01*
X133829887Y-104937128D02*
X133787030Y-105022842D01*
X133787030Y-105022842D02*
X133744173Y-105065700D01*
X133744173Y-105065700D02*
X133658458Y-105108557D01*
X133658458Y-105108557D02*
X133401315Y-105108557D01*
X133401315Y-105108557D02*
X133315601Y-105065700D01*
X133315601Y-105065700D02*
X133272744Y-105022842D01*
X131944173Y-106791414D02*
X131858459Y-106748557D01*
X131858459Y-106748557D02*
X131729887Y-106748557D01*
X131729887Y-106748557D02*
X131601316Y-106791414D01*
X131601316Y-106791414D02*
X131515601Y-106877128D01*
X131515601Y-106877128D02*
X131472744Y-106962842D01*
X131472744Y-106962842D02*
X131429887Y-107134271D01*
X131429887Y-107134271D02*
X131429887Y-107262842D01*
X131429887Y-107262842D02*
X131472744Y-107434271D01*
X131472744Y-107434271D02*
X131515601Y-107519985D01*
X131515601Y-107519985D02*
X131601316Y-107605700D01*
X131601316Y-107605700D02*
X131729887Y-107648557D01*
X131729887Y-107648557D02*
X131815601Y-107648557D01*
X131815601Y-107648557D02*
X131944173Y-107605700D01*
X131944173Y-107605700D02*
X131987030Y-107562842D01*
X131987030Y-107562842D02*
X131987030Y-107262842D01*
X131987030Y-107262842D02*
X131815601Y-107262842D01*
X132372744Y-107648557D02*
X132372744Y-106748557D01*
X132372744Y-106748557D02*
X132887030Y-107648557D01*
X132887030Y-107648557D02*
X132887030Y-106748557D01*
X133315601Y-107648557D02*
X133315601Y-106748557D01*
X133315601Y-106748557D02*
X133529887Y-106748557D01*
X133529887Y-106748557D02*
X133658458Y-106791414D01*
X133658458Y-106791414D02*
X133744173Y-106877128D01*
X133744173Y-106877128D02*
X133787030Y-106962842D01*
X133787030Y-106962842D02*
X133829887Y-107134271D01*
X133829887Y-107134271D02*
X133829887Y-107262842D01*
X133829887Y-107262842D02*
X133787030Y-107434271D01*
X133787030Y-107434271D02*
X133744173Y-107519985D01*
X133744173Y-107519985D02*
X133658458Y-107605700D01*
X133658458Y-107605700D02*
X133529887Y-107648557D01*
X133529887Y-107648557D02*
X133315601Y-107648557D01*
X131944173Y-109288557D02*
X132244173Y-110188557D01*
X132244173Y-110188557D02*
X132544173Y-109288557D01*
X132844173Y-110188557D02*
X132844173Y-109288557D01*
X133272744Y-110188557D02*
X133272744Y-109288557D01*
X133272744Y-109288557D02*
X133787030Y-110188557D01*
X133787030Y-110188557D02*
X133787030Y-109288557D01*
D11*
X147571428Y-112344742D02*
X147571428Y-113316171D01*
X147571428Y-113316171D02*
X147628571Y-113430457D01*
X147628571Y-113430457D02*
X147685714Y-113487600D01*
X147685714Y-113487600D02*
X147799999Y-113544742D01*
X147799999Y-113544742D02*
X148028571Y-113544742D01*
X148028571Y-113544742D02*
X148142856Y-113487600D01*
X148142856Y-113487600D02*
X148199999Y-113430457D01*
X148199999Y-113430457D02*
X148257142Y-113316171D01*
X148257142Y-113316171D02*
X148257142Y-112344742D01*
X148771428Y-113487600D02*
X148942857Y-113544742D01*
X148942857Y-113544742D02*
X149228571Y-113544742D01*
X149228571Y-113544742D02*
X149342857Y-113487600D01*
X149342857Y-113487600D02*
X149399999Y-113430457D01*
X149399999Y-113430457D02*
X149457142Y-113316171D01*
X149457142Y-113316171D02*
X149457142Y-113201885D01*
X149457142Y-113201885D02*
X149399999Y-113087600D01*
X149399999Y-113087600D02*
X149342857Y-113030457D01*
X149342857Y-113030457D02*
X149228571Y-112973314D01*
X149228571Y-112973314D02*
X148999999Y-112916171D01*
X148999999Y-112916171D02*
X148885714Y-112859028D01*
X148885714Y-112859028D02*
X148828571Y-112801885D01*
X148828571Y-112801885D02*
X148771428Y-112687600D01*
X148771428Y-112687600D02*
X148771428Y-112573314D01*
X148771428Y-112573314D02*
X148828571Y-112459028D01*
X148828571Y-112459028D02*
X148885714Y-112401885D01*
X148885714Y-112401885D02*
X148999999Y-112344742D01*
X148999999Y-112344742D02*
X149285714Y-112344742D01*
X149285714Y-112344742D02*
X149457142Y-112401885D01*
X150371428Y-112916171D02*
X150542856Y-112973314D01*
X150542856Y-112973314D02*
X150599999Y-113030457D01*
X150599999Y-113030457D02*
X150657142Y-113144742D01*
X150657142Y-113144742D02*
X150657142Y-113316171D01*
X150657142Y-113316171D02*
X150599999Y-113430457D01*
X150599999Y-113430457D02*
X150542856Y-113487600D01*
X150542856Y-113487600D02*
X150428571Y-113544742D01*
X150428571Y-113544742D02*
X149971428Y-113544742D01*
X149971428Y-113544742D02*
X149971428Y-112344742D01*
X149971428Y-112344742D02*
X150371428Y-112344742D01*
X150371428Y-112344742D02*
X150485714Y-112401885D01*
X150485714Y-112401885D02*
X150542856Y-112459028D01*
X150542856Y-112459028D02*
X150599999Y-112573314D01*
X150599999Y-112573314D02*
X150599999Y-112687600D01*
X150599999Y-112687600D02*
X150542856Y-112801885D01*
X150542856Y-112801885D02*
X150485714Y-112859028D01*
X150485714Y-112859028D02*
X150371428Y-112916171D01*
X150371428Y-112916171D02*
X149971428Y-112916171D01*
X151971428Y-112744742D02*
X152257142Y-113544742D01*
X152257142Y-113544742D02*
X152542857Y-112744742D01*
D10*
X166127255Y-73728557D02*
X166684398Y-73728557D01*
X166684398Y-73728557D02*
X166384398Y-74071414D01*
X166384398Y-74071414D02*
X166512969Y-74071414D01*
X166512969Y-74071414D02*
X166598684Y-74114271D01*
X166598684Y-74114271D02*
X166641541Y-74157128D01*
X166641541Y-74157128D02*
X166684398Y-74242842D01*
X166684398Y-74242842D02*
X166684398Y-74457128D01*
X166684398Y-74457128D02*
X166641541Y-74542842D01*
X166641541Y-74542842D02*
X166598684Y-74585700D01*
X166598684Y-74585700D02*
X166512969Y-74628557D01*
X166512969Y-74628557D02*
X166255826Y-74628557D01*
X166255826Y-74628557D02*
X166170112Y-74585700D01*
X166170112Y-74585700D02*
X166127255Y-74542842D01*
X166941541Y-73728557D02*
X167241541Y-74628557D01*
X167241541Y-74628557D02*
X167541541Y-73728557D01*
X167755827Y-73728557D02*
X168312970Y-73728557D01*
X168312970Y-73728557D02*
X168012970Y-74071414D01*
X168012970Y-74071414D02*
X168141541Y-74071414D01*
X168141541Y-74071414D02*
X168227256Y-74114271D01*
X168227256Y-74114271D02*
X168270113Y-74157128D01*
X168270113Y-74157128D02*
X168312970Y-74242842D01*
X168312970Y-74242842D02*
X168312970Y-74457128D01*
X168312970Y-74457128D02*
X168270113Y-74542842D01*
X168270113Y-74542842D02*
X168227256Y-74585700D01*
X168227256Y-74585700D02*
X168141541Y-74628557D01*
X168141541Y-74628557D02*
X167884398Y-74628557D01*
X167884398Y-74628557D02*
X167798684Y-74585700D01*
X167798684Y-74585700D02*
X167755827Y-74542842D01*
X166684398Y-76311414D02*
X166598684Y-76268557D01*
X166598684Y-76268557D02*
X166470112Y-76268557D01*
X166470112Y-76268557D02*
X166341541Y-76311414D01*
X166341541Y-76311414D02*
X166255826Y-76397128D01*
X166255826Y-76397128D02*
X166212969Y-76482842D01*
X166212969Y-76482842D02*
X166170112Y-76654271D01*
X166170112Y-76654271D02*
X166170112Y-76782842D01*
X166170112Y-76782842D02*
X166212969Y-76954271D01*
X166212969Y-76954271D02*
X166255826Y-77039985D01*
X166255826Y-77039985D02*
X166341541Y-77125700D01*
X166341541Y-77125700D02*
X166470112Y-77168557D01*
X166470112Y-77168557D02*
X166555826Y-77168557D01*
X166555826Y-77168557D02*
X166684398Y-77125700D01*
X166684398Y-77125700D02*
X166727255Y-77082842D01*
X166727255Y-77082842D02*
X166727255Y-76782842D01*
X166727255Y-76782842D02*
X166555826Y-76782842D01*
X167112969Y-77168557D02*
X167112969Y-76268557D01*
X167112969Y-76268557D02*
X167627255Y-77168557D01*
X167627255Y-77168557D02*
X167627255Y-76268557D01*
X168055826Y-77168557D02*
X168055826Y-76268557D01*
X168055826Y-76268557D02*
X168270112Y-76268557D01*
X168270112Y-76268557D02*
X168398683Y-76311414D01*
X168398683Y-76311414D02*
X168484398Y-76397128D01*
X168484398Y-76397128D02*
X168527255Y-76482842D01*
X168527255Y-76482842D02*
X168570112Y-76654271D01*
X168570112Y-76654271D02*
X168570112Y-76782842D01*
X168570112Y-76782842D02*
X168527255Y-76954271D01*
X168527255Y-76954271D02*
X168484398Y-77039985D01*
X168484398Y-77039985D02*
X168398683Y-77125700D01*
X168398683Y-77125700D02*
X168270112Y-77168557D01*
X168270112Y-77168557D02*
X168055826Y-77168557D01*
X166684398Y-79708557D02*
X166170112Y-79708557D01*
X166427255Y-79708557D02*
X166427255Y-78808557D01*
X166427255Y-78808557D02*
X166341541Y-78937128D01*
X166341541Y-78937128D02*
X166255826Y-79022842D01*
X166255826Y-79022842D02*
X166170112Y-79065700D01*
X167498684Y-78808557D02*
X167070112Y-78808557D01*
X167070112Y-78808557D02*
X167027255Y-79237128D01*
X167027255Y-79237128D02*
X167070112Y-79194271D01*
X167070112Y-79194271D02*
X167155827Y-79151414D01*
X167155827Y-79151414D02*
X167370112Y-79151414D01*
X167370112Y-79151414D02*
X167455827Y-79194271D01*
X167455827Y-79194271D02*
X167498684Y-79237128D01*
X167498684Y-79237128D02*
X167541541Y-79322842D01*
X167541541Y-79322842D02*
X167541541Y-79537128D01*
X167541541Y-79537128D02*
X167498684Y-79622842D01*
X167498684Y-79622842D02*
X167455827Y-79665700D01*
X167455827Y-79665700D02*
X167370112Y-79708557D01*
X167370112Y-79708557D02*
X167155827Y-79708557D01*
X167155827Y-79708557D02*
X167070112Y-79665700D01*
X167070112Y-79665700D02*
X167027255Y-79622842D01*
X166170112Y-81434271D02*
X166212969Y-81391414D01*
X166212969Y-81391414D02*
X166298684Y-81348557D01*
X166298684Y-81348557D02*
X166512969Y-81348557D01*
X166512969Y-81348557D02*
X166598684Y-81391414D01*
X166598684Y-81391414D02*
X166641541Y-81434271D01*
X166641541Y-81434271D02*
X166684398Y-81519985D01*
X166684398Y-81519985D02*
X166684398Y-81605700D01*
X166684398Y-81605700D02*
X166641541Y-81734271D01*
X166641541Y-81734271D02*
X166127255Y-82248557D01*
X166127255Y-82248557D02*
X166684398Y-82248557D01*
X166598684Y-84188557D02*
X166598684Y-84788557D01*
X166384398Y-83845700D02*
X166170112Y-84488557D01*
X166170112Y-84488557D02*
X166727255Y-84488557D01*
X166684398Y-87328557D02*
X166170112Y-87328557D01*
X166427255Y-87328557D02*
X166427255Y-86428557D01*
X166427255Y-86428557D02*
X166341541Y-86557128D01*
X166341541Y-86557128D02*
X166255826Y-86642842D01*
X166255826Y-86642842D02*
X166170112Y-86685700D01*
X167455827Y-86428557D02*
X167284398Y-86428557D01*
X167284398Y-86428557D02*
X167198684Y-86471414D01*
X167198684Y-86471414D02*
X167155827Y-86514271D01*
X167155827Y-86514271D02*
X167070112Y-86642842D01*
X167070112Y-86642842D02*
X167027255Y-86814271D01*
X167027255Y-86814271D02*
X167027255Y-87157128D01*
X167027255Y-87157128D02*
X167070112Y-87242842D01*
X167070112Y-87242842D02*
X167112969Y-87285700D01*
X167112969Y-87285700D02*
X167198684Y-87328557D01*
X167198684Y-87328557D02*
X167370112Y-87328557D01*
X167370112Y-87328557D02*
X167455827Y-87285700D01*
X167455827Y-87285700D02*
X167498684Y-87242842D01*
X167498684Y-87242842D02*
X167541541Y-87157128D01*
X167541541Y-87157128D02*
X167541541Y-86942842D01*
X167541541Y-86942842D02*
X167498684Y-86857128D01*
X167498684Y-86857128D02*
X167455827Y-86814271D01*
X167455827Y-86814271D02*
X167370112Y-86771414D01*
X167370112Y-86771414D02*
X167198684Y-86771414D01*
X167198684Y-86771414D02*
X167112969Y-86814271D01*
X167112969Y-86814271D02*
X167070112Y-86857128D01*
X167070112Y-86857128D02*
X167027255Y-86942842D01*
X166684398Y-89868557D02*
X166170112Y-89868557D01*
X166427255Y-89868557D02*
X166427255Y-88968557D01*
X166427255Y-88968557D02*
X166341541Y-89097128D01*
X166341541Y-89097128D02*
X166255826Y-89182842D01*
X166255826Y-89182842D02*
X166170112Y-89225700D01*
X166984398Y-88968557D02*
X167584398Y-88968557D01*
X167584398Y-88968557D02*
X167198684Y-89868557D01*
X166641541Y-91508557D02*
X166212969Y-91508557D01*
X166212969Y-91508557D02*
X166170112Y-91937128D01*
X166170112Y-91937128D02*
X166212969Y-91894271D01*
X166212969Y-91894271D02*
X166298684Y-91851414D01*
X166298684Y-91851414D02*
X166512969Y-91851414D01*
X166512969Y-91851414D02*
X166598684Y-91894271D01*
X166598684Y-91894271D02*
X166641541Y-91937128D01*
X166641541Y-91937128D02*
X166684398Y-92022842D01*
X166684398Y-92022842D02*
X166684398Y-92237128D01*
X166684398Y-92237128D02*
X166641541Y-92322842D01*
X166641541Y-92322842D02*
X166598684Y-92365700D01*
X166598684Y-92365700D02*
X166512969Y-92408557D01*
X166512969Y-92408557D02*
X166298684Y-92408557D01*
X166298684Y-92408557D02*
X166212969Y-92365700D01*
X166212969Y-92365700D02*
X166170112Y-92322842D01*
X166684398Y-94948557D02*
X166170112Y-94948557D01*
X166427255Y-94948557D02*
X166427255Y-94048557D01*
X166427255Y-94048557D02*
X166341541Y-94177128D01*
X166341541Y-94177128D02*
X166255826Y-94262842D01*
X166255826Y-94262842D02*
X166170112Y-94305700D01*
X167198684Y-94434271D02*
X167112969Y-94391414D01*
X167112969Y-94391414D02*
X167070112Y-94348557D01*
X167070112Y-94348557D02*
X167027255Y-94262842D01*
X167027255Y-94262842D02*
X167027255Y-94219985D01*
X167027255Y-94219985D02*
X167070112Y-94134271D01*
X167070112Y-94134271D02*
X167112969Y-94091414D01*
X167112969Y-94091414D02*
X167198684Y-94048557D01*
X167198684Y-94048557D02*
X167370112Y-94048557D01*
X167370112Y-94048557D02*
X167455827Y-94091414D01*
X167455827Y-94091414D02*
X167498684Y-94134271D01*
X167498684Y-94134271D02*
X167541541Y-94219985D01*
X167541541Y-94219985D02*
X167541541Y-94262842D01*
X167541541Y-94262842D02*
X167498684Y-94348557D01*
X167498684Y-94348557D02*
X167455827Y-94391414D01*
X167455827Y-94391414D02*
X167370112Y-94434271D01*
X167370112Y-94434271D02*
X167198684Y-94434271D01*
X167198684Y-94434271D02*
X167112969Y-94477128D01*
X167112969Y-94477128D02*
X167070112Y-94519985D01*
X167070112Y-94519985D02*
X167027255Y-94605700D01*
X167027255Y-94605700D02*
X167027255Y-94777128D01*
X167027255Y-94777128D02*
X167070112Y-94862842D01*
X167070112Y-94862842D02*
X167112969Y-94905700D01*
X167112969Y-94905700D02*
X167198684Y-94948557D01*
X167198684Y-94948557D02*
X167370112Y-94948557D01*
X167370112Y-94948557D02*
X167455827Y-94905700D01*
X167455827Y-94905700D02*
X167498684Y-94862842D01*
X167498684Y-94862842D02*
X167541541Y-94777128D01*
X167541541Y-94777128D02*
X167541541Y-94605700D01*
X167541541Y-94605700D02*
X167498684Y-94519985D01*
X167498684Y-94519985D02*
X167455827Y-94477128D01*
X167455827Y-94477128D02*
X167370112Y-94434271D01*
X166684398Y-97488557D02*
X166170112Y-97488557D01*
X166427255Y-97488557D02*
X166427255Y-96588557D01*
X166427255Y-96588557D02*
X166341541Y-96717128D01*
X166341541Y-96717128D02*
X166255826Y-96802842D01*
X166255826Y-96802842D02*
X166170112Y-96845700D01*
X167112969Y-97488557D02*
X167284398Y-97488557D01*
X167284398Y-97488557D02*
X167370112Y-97445700D01*
X167370112Y-97445700D02*
X167412969Y-97402842D01*
X167412969Y-97402842D02*
X167498684Y-97274271D01*
X167498684Y-97274271D02*
X167541541Y-97102842D01*
X167541541Y-97102842D02*
X167541541Y-96759985D01*
X167541541Y-96759985D02*
X167498684Y-96674271D01*
X167498684Y-96674271D02*
X167455827Y-96631414D01*
X167455827Y-96631414D02*
X167370112Y-96588557D01*
X167370112Y-96588557D02*
X167198684Y-96588557D01*
X167198684Y-96588557D02*
X167112969Y-96631414D01*
X167112969Y-96631414D02*
X167070112Y-96674271D01*
X167070112Y-96674271D02*
X167027255Y-96759985D01*
X167027255Y-96759985D02*
X167027255Y-96974271D01*
X167027255Y-96974271D02*
X167070112Y-97059985D01*
X167070112Y-97059985D02*
X167112969Y-97102842D01*
X167112969Y-97102842D02*
X167198684Y-97145700D01*
X167198684Y-97145700D02*
X167370112Y-97145700D01*
X167370112Y-97145700D02*
X167455827Y-97102842D01*
X167455827Y-97102842D02*
X167498684Y-97059985D01*
X167498684Y-97059985D02*
X167541541Y-96974271D01*
X166170112Y-99214271D02*
X166212969Y-99171414D01*
X166212969Y-99171414D02*
X166298684Y-99128557D01*
X166298684Y-99128557D02*
X166512969Y-99128557D01*
X166512969Y-99128557D02*
X166598684Y-99171414D01*
X166598684Y-99171414D02*
X166641541Y-99214271D01*
X166641541Y-99214271D02*
X166684398Y-99299985D01*
X166684398Y-99299985D02*
X166684398Y-99385700D01*
X166684398Y-99385700D02*
X166641541Y-99514271D01*
X166641541Y-99514271D02*
X166127255Y-100028557D01*
X166127255Y-100028557D02*
X166684398Y-100028557D01*
X167541541Y-100028557D02*
X167027255Y-100028557D01*
X167284398Y-100028557D02*
X167284398Y-99128557D01*
X167284398Y-99128557D02*
X167198684Y-99257128D01*
X167198684Y-99257128D02*
X167112969Y-99342842D01*
X167112969Y-99342842D02*
X167027255Y-99385700D01*
X166727255Y-102568557D02*
X166427255Y-102139985D01*
X166212969Y-102568557D02*
X166212969Y-101668557D01*
X166212969Y-101668557D02*
X166555826Y-101668557D01*
X166555826Y-101668557D02*
X166641541Y-101711414D01*
X166641541Y-101711414D02*
X166684398Y-101754271D01*
X166684398Y-101754271D02*
X166727255Y-101839985D01*
X166727255Y-101839985D02*
X166727255Y-101968557D01*
X166727255Y-101968557D02*
X166684398Y-102054271D01*
X166684398Y-102054271D02*
X166641541Y-102097128D01*
X166641541Y-102097128D02*
X166555826Y-102139985D01*
X166555826Y-102139985D02*
X166212969Y-102139985D01*
X167027255Y-101668557D02*
X167627255Y-102568557D01*
X167627255Y-101668557D02*
X167027255Y-102568557D01*
X168141541Y-101668557D02*
X168227255Y-101668557D01*
X168227255Y-101668557D02*
X168312969Y-101711414D01*
X168312969Y-101711414D02*
X168355827Y-101754271D01*
X168355827Y-101754271D02*
X168398684Y-101839985D01*
X168398684Y-101839985D02*
X168441541Y-102011414D01*
X168441541Y-102011414D02*
X168441541Y-102225700D01*
X168441541Y-102225700D02*
X168398684Y-102397128D01*
X168398684Y-102397128D02*
X168355827Y-102482842D01*
X168355827Y-102482842D02*
X168312969Y-102525700D01*
X168312969Y-102525700D02*
X168227255Y-102568557D01*
X168227255Y-102568557D02*
X168141541Y-102568557D01*
X168141541Y-102568557D02*
X168055827Y-102525700D01*
X168055827Y-102525700D02*
X168012969Y-102482842D01*
X168012969Y-102482842D02*
X167970112Y-102397128D01*
X167970112Y-102397128D02*
X167927255Y-102225700D01*
X167927255Y-102225700D02*
X167927255Y-102011414D01*
X167927255Y-102011414D02*
X167970112Y-101839985D01*
X167970112Y-101839985D02*
X168012969Y-101754271D01*
X168012969Y-101754271D02*
X168055827Y-101711414D01*
X168055827Y-101711414D02*
X168141541Y-101668557D01*
X166084398Y-104208557D02*
X166598684Y-104208557D01*
X166341541Y-105108557D02*
X166341541Y-104208557D01*
X166812969Y-104208557D02*
X167412969Y-105108557D01*
X167412969Y-104208557D02*
X166812969Y-105108557D01*
X167927255Y-104208557D02*
X168012969Y-104208557D01*
X168012969Y-104208557D02*
X168098683Y-104251414D01*
X168098683Y-104251414D02*
X168141541Y-104294271D01*
X168141541Y-104294271D02*
X168184398Y-104379985D01*
X168184398Y-104379985D02*
X168227255Y-104551414D01*
X168227255Y-104551414D02*
X168227255Y-104765700D01*
X168227255Y-104765700D02*
X168184398Y-104937128D01*
X168184398Y-104937128D02*
X168141541Y-105022842D01*
X168141541Y-105022842D02*
X168098683Y-105065700D01*
X168098683Y-105065700D02*
X168012969Y-105108557D01*
X168012969Y-105108557D02*
X167927255Y-105108557D01*
X167927255Y-105108557D02*
X167841541Y-105065700D01*
X167841541Y-105065700D02*
X167798683Y-105022842D01*
X167798683Y-105022842D02*
X167755826Y-104937128D01*
X167755826Y-104937128D02*
X167712969Y-104765700D01*
X167712969Y-104765700D02*
X167712969Y-104551414D01*
X167712969Y-104551414D02*
X167755826Y-104379985D01*
X167755826Y-104379985D02*
X167798683Y-104294271D01*
X167798683Y-104294271D02*
X167841541Y-104251414D01*
X167841541Y-104251414D02*
X167927255Y-104208557D01*
X166170112Y-106834271D02*
X166212969Y-106791414D01*
X166212969Y-106791414D02*
X166298684Y-106748557D01*
X166298684Y-106748557D02*
X166512969Y-106748557D01*
X166512969Y-106748557D02*
X166598684Y-106791414D01*
X166598684Y-106791414D02*
X166641541Y-106834271D01*
X166641541Y-106834271D02*
X166684398Y-106919985D01*
X166684398Y-106919985D02*
X166684398Y-107005700D01*
X166684398Y-107005700D02*
X166641541Y-107134271D01*
X166641541Y-107134271D02*
X166127255Y-107648557D01*
X166127255Y-107648557D02*
X166684398Y-107648557D01*
X167027255Y-106834271D02*
X167070112Y-106791414D01*
X167070112Y-106791414D02*
X167155827Y-106748557D01*
X167155827Y-106748557D02*
X167370112Y-106748557D01*
X167370112Y-106748557D02*
X167455827Y-106791414D01*
X167455827Y-106791414D02*
X167498684Y-106834271D01*
X167498684Y-106834271D02*
X167541541Y-106919985D01*
X167541541Y-106919985D02*
X167541541Y-107005700D01*
X167541541Y-107005700D02*
X167498684Y-107134271D01*
X167498684Y-107134271D02*
X166984398Y-107648557D01*
X166984398Y-107648557D02*
X167541541Y-107648557D01*
X166170112Y-109374271D02*
X166212969Y-109331414D01*
X166212969Y-109331414D02*
X166298684Y-109288557D01*
X166298684Y-109288557D02*
X166512969Y-109288557D01*
X166512969Y-109288557D02*
X166598684Y-109331414D01*
X166598684Y-109331414D02*
X166641541Y-109374271D01*
X166641541Y-109374271D02*
X166684398Y-109459985D01*
X166684398Y-109459985D02*
X166684398Y-109545700D01*
X166684398Y-109545700D02*
X166641541Y-109674271D01*
X166641541Y-109674271D02*
X166127255Y-110188557D01*
X166127255Y-110188557D02*
X166684398Y-110188557D01*
X166984398Y-109288557D02*
X167541541Y-109288557D01*
X167541541Y-109288557D02*
X167241541Y-109631414D01*
X167241541Y-109631414D02*
X167370112Y-109631414D01*
X167370112Y-109631414D02*
X167455827Y-109674271D01*
X167455827Y-109674271D02*
X167498684Y-109717128D01*
X167498684Y-109717128D02*
X167541541Y-109802842D01*
X167541541Y-109802842D02*
X167541541Y-110017128D01*
X167541541Y-110017128D02*
X167498684Y-110102842D01*
X167498684Y-110102842D02*
X167455827Y-110145700D01*
X167455827Y-110145700D02*
X167370112Y-110188557D01*
X167370112Y-110188557D02*
X167112969Y-110188557D01*
X167112969Y-110188557D02*
X167027255Y-110145700D01*
X167027255Y-110145700D02*
X166984398Y-110102842D01*
X171833333Y-83454819D02*
X171500000Y-82978628D01*
X171261905Y-83454819D02*
X171261905Y-82454819D01*
X171261905Y-82454819D02*
X171642857Y-82454819D01*
X171642857Y-82454819D02*
X171738095Y-82502438D01*
X171738095Y-82502438D02*
X171785714Y-82550057D01*
X171785714Y-82550057D02*
X171833333Y-82645295D01*
X171833333Y-82645295D02*
X171833333Y-82788152D01*
X171833333Y-82788152D02*
X171785714Y-82883390D01*
X171785714Y-82883390D02*
X171738095Y-82931009D01*
X171738095Y-82931009D02*
X171642857Y-82978628D01*
X171642857Y-82978628D02*
X171261905Y-82978628D01*
X172404762Y-82883390D02*
X172309524Y-82835771D01*
X172309524Y-82835771D02*
X172261905Y-82788152D01*
X172261905Y-82788152D02*
X172214286Y-82692914D01*
X172214286Y-82692914D02*
X172214286Y-82645295D01*
X172214286Y-82645295D02*
X172261905Y-82550057D01*
X172261905Y-82550057D02*
X172309524Y-82502438D01*
X172309524Y-82502438D02*
X172404762Y-82454819D01*
X172404762Y-82454819D02*
X172595238Y-82454819D01*
X172595238Y-82454819D02*
X172690476Y-82502438D01*
X172690476Y-82502438D02*
X172738095Y-82550057D01*
X172738095Y-82550057D02*
X172785714Y-82645295D01*
X172785714Y-82645295D02*
X172785714Y-82692914D01*
X172785714Y-82692914D02*
X172738095Y-82788152D01*
X172738095Y-82788152D02*
X172690476Y-82835771D01*
X172690476Y-82835771D02*
X172595238Y-82883390D01*
X172595238Y-82883390D02*
X172404762Y-82883390D01*
X172404762Y-82883390D02*
X172309524Y-82931009D01*
X172309524Y-82931009D02*
X172261905Y-82978628D01*
X172261905Y-82978628D02*
X172214286Y-83073866D01*
X172214286Y-83073866D02*
X172214286Y-83264342D01*
X172214286Y-83264342D02*
X172261905Y-83359580D01*
X172261905Y-83359580D02*
X172309524Y-83407200D01*
X172309524Y-83407200D02*
X172404762Y-83454819D01*
X172404762Y-83454819D02*
X172595238Y-83454819D01*
X172595238Y-83454819D02*
X172690476Y-83407200D01*
X172690476Y-83407200D02*
X172738095Y-83359580D01*
X172738095Y-83359580D02*
X172785714Y-83264342D01*
X172785714Y-83264342D02*
X172785714Y-83073866D01*
X172785714Y-83073866D02*
X172738095Y-82978628D01*
X172738095Y-82978628D02*
X172690476Y-82931009D01*
X172690476Y-82931009D02*
X172595238Y-82883390D01*
%TO.C,U1*%
X136000000Y-72700000D02*
X164000000Y-72700000D01*
X164000000Y-111300000D01*
X136000000Y-111300000D01*
X136000000Y-72700000D01*
%TD*%
M02*
